<?xml version="1.0" encoding="UTF-8"?>
<svg version="1.1" xmlns="http://www.w3.org/2000/svg" width="80" height="80">
<path d="M0 0 C3.17578125 0.29296875 3.17578125 0.29296875 5.1953125 1.8046875 C5.78699219 2.52269531 6.37867187 3.24070312 6.98828125 3.98046875 C7.65988281 4.79386719 8.33148438 5.60726563 9.0234375 6.4453125 C12.18797881 10.63215572 15.17211314 14.92059969 18.09765625 19.27734375 C21.52814669 24.91553306 21.52814669 24.91553306 26.92578125 28.10546875 C28.03953125 28.19828125 28.03953125 28.19828125 29.17578125 28.29296875 C29.23894531 27.64070313 29.30210938 26.9884375 29.3671875 26.31640625 C30.04512411 21.47807973 30.74031577 18.05241387 34.42578125 14.66796875 C36.99069453 12.7763452 38.18366263 12.29175623 41.42578125 11.79296875 C44.17578125 12.29296875 44.17578125 12.29296875 47.17578125 14.29296875 C46.74912275 18.3035587 46.1314081 21.42660952 44.48828125 25.10546875 C42.50510327 30.61851376 43.52825057 35.90072442 44.3996582 41.55786133 C45.58421576 49.56127419 45.47950542 56.58565268 40.75 63.375 C35.68435126 69.54679536 30.19648939 73.96303937 22.17578125 75.29296875 C14.73192477 75.82190829 9.78050342 72.92406094 4.17578125 68.29296875 C0.54186883 65.07985948 -2.99215368 61.76335828 -6.5078125 58.421875 C-9.0920572 55.96629425 -11.73302029 53.60300669 -14.44921875 51.29296875 C-17.27057814 48.82958829 -19.86552385 46.52907337 -21.82421875 43.29296875 C-21.66499398 39.86963624 -21.26109505 38.72984505 -18.82421875 36.29296875 C-16.69921875 35.66796875 -16.69921875 35.66796875 -14.82421875 35.29296875 C-15.31792969 34.81085937 -15.81164062 34.32875 -16.3203125 33.83203125 C-16.96097656 33.20039062 -17.60164063 32.56875 -18.26171875 31.91796875 C-19.21884766 30.97824219 -19.21884766 30.97824219 -20.1953125 30.01953125 C-22.44860119 27.63115331 -22.80368177 26.62156045 -23.01171875 23.29296875 C-22.82421875 20.29296875 -22.82421875 20.29296875 -20.82421875 18.29296875 C-17.19921875 18.16796875 -17.19921875 18.16796875 -13.82421875 18.29296875 C-14.46359375 17.59171875 -15.10296875 16.89046875 -15.76171875 16.16796875 C-18.02403191 13.01444132 -18.74024931 11.15556301 -18.82421875 7.29296875 C-17.82421875 5.35546875 -17.82421875 5.35546875 -15.82421875 4.29296875 C-12.20088695 4.42237346 -9.75436844 4.54284803 -6.88671875 6.85546875 C-6.53609375 7.32984375 -6.18546875 7.80421875 -5.82421875 8.29296875 C-5.51484375 7.15859375 -5.20546875 6.02421875 -4.88671875 4.85546875 C-3.5483774 0.36808894 -3.5483774 0.36808894 0 0 Z M-3.82421875 10.29296875 C-2.82421875 12.29296875 -2.82421875 12.29296875 -2.82421875 12.29296875 Z " fill="#FECD4A" transform="translate(31.82421875,3.70703125)"/>
<path d="M0 0 C3.17578125 0.29296875 3.17578125 0.29296875 5.1953125 1.8046875 C5.78699219 2.52269531 6.37867187 3.24070312 6.98828125 3.98046875 C7.65988281 4.79386719 8.33148438 5.60726563 9.0234375 6.4453125 C12.18797881 10.63215572 15.17211314 14.92059969 18.09765625 19.27734375 C21.52814669 24.91553306 21.52814669 24.91553306 26.92578125 28.10546875 C28.03953125 28.19828125 28.03953125 28.19828125 29.17578125 28.29296875 C29.23894531 27.64070313 29.30210938 26.9884375 29.3671875 26.31640625 C30.04512411 21.47807973 30.74031577 18.05241387 34.42578125 14.66796875 C36.99069453 12.7763452 38.18366263 12.29175623 41.42578125 11.79296875 C44.17578125 12.29296875 44.17578125 12.29296875 47.17578125 14.29296875 C46.74912275 18.3035587 46.1314081 21.42660952 44.48828125 25.10546875 C42.50510327 30.61851376 43.52825057 35.90072442 44.3996582 41.55786133 C45.58421576 49.56127419 45.47950542 56.58565268 40.75 63.375 C35.68435126 69.54679536 30.19648939 73.96303937 22.17578125 75.29296875 C14.73192477 75.82190829 9.78050342 72.92406094 4.17578125 68.29296875 C0.54186883 65.07985948 -2.99215368 61.76335828 -6.5078125 58.421875 C-9.0920572 55.96629425 -11.73302029 53.60300669 -14.44921875 51.29296875 C-17.2684458 48.84883199 -19.73964568 46.41982836 -21.82421875 43.29296875 C-21.82421875 42.30296875 -21.82421875 41.31296875 -21.82421875 40.29296875 C-21.16421875 40.29296875 -20.50421875 40.29296875 -19.82421875 40.29296875 C-18.39396649 41.93390132 -17.02999485 43.63287878 -15.69921875 45.35546875 C-9.13840275 53.69454813 -9.13840275 53.69454813 -0.32421875 59.29296875 C2.51317127 60.42792476 3.58070809 61.7268714 5.67578125 63.91796875 C9.31163323 67.22832541 11.96658509 67.87697905 16.86328125 68.04296875 C20.87458459 67.80348795 22.64787665 67.67689937 25.92578125 65.29296875 C26.66828125 64.30296875 27.41078125 63.31296875 28.17578125 62.29296875 C28.91828125 61.75800781 29.66078125 61.22304687 30.42578125 60.671875 C34.39806929 57.78575947 36.80660866 55.78691018 38.01171875 50.91015625 C38.48373446 44.90152385 38.24428177 39.22908273 37.17578125 33.29296875 C36.71874289 30.48302918 36.47675367 28.07269559 37.17578125 25.29296875 C38.84193174 23.20611526 40.5966606 21.54655961 42.64453125 19.8359375 C44.52798436 18.300373 44.52798436 18.300373 44.17578125 15.29296875 C40.11283389 14.9709149 40.11283389 14.9709149 36.36328125 16.29296875 C34.8256286 18.88269953 34.81672676 21.33429297 34.5390625 24.28515625 C33.95971031 27.48716727 32.56875203 29.16588361 30.17578125 31.29296875 C27.78515625 31.68359375 27.78515625 31.68359375 25.17578125 31.29296875 C23.11328125 29.46484375 23.11328125 29.46484375 21.17578125 27.04296875 C18.9921914 24.41198925 17.11068329 22.24118628 14.42578125 20.10546875 C11.6433912 17.86409899 10.07153693 15.30002949 8.17578125 12.29296875 C7.51578125 11.63296875 6.85578125 10.97296875 6.17578125 10.29296875 C5.4565083 7.97531146 4.78479195 5.64201001 4.17578125 3.29296875 C1.20578125 2.79796875 1.20578125 2.79796875 -1.82421875 2.29296875 C-0.41360826 7.50505496 1.94047949 11.16009626 5.11328125 15.41796875 C5.55607422 16.02511719 5.99886719 16.63226562 6.45507812 17.2578125 C8.25801086 19.72441794 10.07258923 22.16386705 11.98046875 24.55078125 C13.56909286 26.86622685 13.40439696 28.54958027 13.17578125 31.29296875 C10.08481762 30.98527101 9.17723273 30.29454163 7.02734375 27.96484375 C6.29257812 27.000625 5.5578125 26.03640625 4.80078125 25.04296875 C1.15321278 20.38184775 1.15321278 20.38184775 -3.19921875 16.41796875 C-5.82421875 14.29296875 -5.82421875 14.29296875 -7.26171875 11.66796875 C-9.52362748 8.22986748 -11.99499966 7.66570767 -15.82421875 6.29296875 C-15.82421875 7.61296875 -15.82421875 8.93296875 -15.82421875 10.29296875 C-14.83421875 10.62296875 -13.84421875 10.95296875 -12.82421875 11.29296875 C-12.82421875 12.61296875 -12.82421875 13.93296875 -12.82421875 15.29296875 C-11.83421875 15.62296875 -10.84421875 15.95296875 -9.82421875 16.29296875 C-9.59734375 17.17984375 -9.37046875 18.06671875 -9.13671875 18.98046875 C-7.5049584 23.09872106 -5.54267496 24.19125328 -2 26.65234375 C1.55905254 29.33600994 4.74731743 32.54402774 7.17578125 36.29296875 C7.17578125 37.61296875 7.17578125 38.93296875 7.17578125 40.29296875 C3.33325099 39.73618186 1.66172824 38.09734528 -0.9765625 35.328125 C-1.75322266 34.52826172 -2.52988281 33.72839844 -3.33007812 32.90429688 C-4.94735965 31.20907407 -6.5645476 29.51376199 -8.18164062 27.81835938 C-9.34856445 26.61663086 -9.34856445 26.61663086 -10.5390625 25.390625 C-11.241521 24.65336182 -11.94397949 23.91609863 -12.66772461 23.15649414 C-14.96047912 21.17521992 -16.96618347 20.24543878 -19.82421875 19.29296875 C-19.49421875 21.27296875 -19.16421875 23.25296875 -18.82421875 25.29296875 C-18.16421875 25.29296875 -17.50421875 25.29296875 -16.82421875 25.29296875 C-16.82421875 26.28296875 -16.82421875 27.27296875 -16.82421875 28.29296875 C-15.50421875 28.95296875 -14.18421875 29.61296875 -12.82421875 30.29296875 C-12.82421875 31.28296875 -12.82421875 32.27296875 -12.82421875 33.29296875 C-12.26734375 33.51984375 -11.71046875 33.74671875 -11.13671875 33.98046875 C-8.15217126 35.67440111 -6.1976783 37.80911573 -3.82421875 40.29296875 C-3.20546875 40.86789063 -2.58671875 41.4428125 -1.94921875 42.03515625 C-1.30984375 42.63585938 -0.67046875 43.2365625 -0.01171875 43.85546875 C0.59285156 44.41363281 1.19742188 44.97179688 1.8203125 45.546875 C3.17578125 47.29296875 3.17578125 47.29296875 3.17578125 51.29296875 C-1.75531541 50.86183462 -4.01130983 48.65488946 -7.51171875 45.29296875 C-10.8864126 41.8972709 -10.8864126 41.8972709 -14.82421875 39.29296875 C-14.82421875 37.97296875 -14.82421875 36.65296875 -14.82421875 35.29296875 C-16.30282043 33.36811237 -16.30282043 33.36811237 -18.26171875 31.66796875 C-22.74769771 27.51730539 -22.74769771 27.51730539 -23.01171875 23.29296875 C-22.82421875 20.29296875 -22.82421875 20.29296875 -20.82421875 18.29296875 C-17.19921875 18.16796875 -17.19921875 18.16796875 -13.82421875 18.29296875 C-14.46359375 17.59171875 -15.10296875 16.89046875 -15.76171875 16.16796875 C-18.02403191 13.01444132 -18.74024931 11.15556301 -18.82421875 7.29296875 C-17.82421875 5.35546875 -17.82421875 5.35546875 -15.82421875 4.29296875 C-12.20088695 4.42237346 -9.75436844 4.54284803 -6.88671875 6.85546875 C-6.53609375 7.32984375 -6.18546875 7.80421875 -5.82421875 8.29296875 C-5.51484375 7.15859375 -5.20546875 6.02421875 -4.88671875 4.85546875 C-3.5483774 0.36808894 -3.5483774 0.36808894 0 0 Z M-3.82421875 10.29296875 C-2.82421875 12.29296875 -2.82421875 12.29296875 -2.82421875 12.29296875 Z " fill="#E09E1F" transform="translate(31.82421875,3.70703125)"/>
<path d="M0 0 C0.33 0 0.66 0 1 0 C1.34064639 3.31178954 1.67114622 6.62452037 2 9.9375 C2.09539062 10.86369141 2.19078125 11.78988281 2.2890625 12.74414062 C3.81049108 28.23011008 3.81049108 28.23011008 2 34 C-1.88757334 38.39273824 -6.91495505 41.21761691 -12 44 C-12.59683594 44.5259375 -13.19367187 45.051875 -13.80859375 45.59375 C-16.76906037 47.49351467 -18.88304143 47.36540846 -22.375 47.3125 C-23.47585937 47.30863281 -24.57671875 47.30476563 -25.7109375 47.30078125 C-33.08068905 46.62682535 -36.77978648 43.81940583 -41.875 38.8125 C-43.1084875 37.6305835 -44.34285675 36.4495865 -45.578125 35.26953125 C-46.16658203 34.70314941 -46.75503906 34.13676758 -47.36132812 33.55322266 C-49.39006513 31.63027498 -51.49306913 29.80733237 -53.625 28 C-56.44422705 25.55586324 -58.91542693 23.12685961 -61 20 C-61 19.01 -61 18.02 -61 17 C-60.34 17 -59.68 17 -59 17 C-57.56974774 18.64093257 -56.2057761 20.33991003 -54.875 22.0625 C-48.314184 30.40157938 -48.314184 30.40157938 -39.5 36 C-36.66260998 37.13495601 -35.59507316 38.43390265 -33.5 40.625 C-29.86414802 43.93535666 -27.20919616 44.5840103 -22.3125 44.75 C-18.30119666 44.5105192 -16.5279046 44.38393062 -13.25 42 C-12.5075 41.01 -11.765 40.02 -11 39 C-10.2575 38.46503906 -9.515 37.93007812 -8.75 37.37890625 C-4.77771196 34.49279072 -2.36917259 32.49394143 -1.1640625 27.6171875 C-0.69204679 21.6085551 -0.93149948 15.93611398 -2 10 C-2.18038817 7.27914515 -2.13917838 4.73717488 -2 2 C-1.34 1.34 -0.68 0.68 0 0 Z " fill="#EBAD1D" transform="translate(71,27)"/>
<path d="M0 0 C0.66 0.33 1.32 0.66 2 1 C1.97808594 2.00289062 1.95617187 3.00578125 1.93359375 4.0390625 C1.9988032 7.92861454 2.45494211 11.53652168 3.0625 15.375 C4.28292017 23.98780042 4.70133055 30.72190801 -0.42578125 38.08203125 C-5.47721591 44.23650872 -10.98566892 48.7051676 -19 50 C-25.17758133 50.23523902 -29.19731554 48.81751842 -34 45 C-33.34 44.34 -32.68 43.68 -32 43 C-31.67 43.33 -31.34 43.66 -31 44 C-24.6428785 44.73746343 -18.75143729 45.2596318 -13.5 41.1875 C-12.32266173 40.13683737 -11.15477205 39.07541568 -10 38 C-5.4 35 -5.4 35 -3 35 C-2.67 34.01 -2.34 33.02 -2 32 C-1.34 32 -0.68 32 0 32 C0 21.44 0 10.88 0 0 Z " fill="#D48616" transform="translate(73,29)"/>
<path d="M0 0 C0.71484375 1.796875 0.71484375 1.796875 1 4 C-0.43359375 5.640625 -0.43359375 5.640625 -2.4375 7.25 C-5.60932795 10.23546527 -5.60932795 10.23546527 -6.5 14.5625 C-6.36393 16.04479442 -6.19161461 17.52385785 -6 19 C-4.55370177 36.11783107 -4.55370177 36.11783107 -6 40 C-8.3750234 42.50624016 -10.86101237 44.71633929 -13.52734375 46.91015625 C-16.16333039 48.98224802 -16.16333039 48.98224802 -18.3125 52.0625 C-22.34092757 54.96671522 -26.08660228 54.67302031 -30.94921875 54.5078125 C-33.96577573 54.00569674 -35.19950301 53.63126498 -37.3125 51.5 C-37.869375 50.675 -38.42625 49.85 -39 49 C-33.125 49.875 -33.125 49.875 -32 51 C-27.95710678 51.77850023 -24.4159709 51.8613397 -20.8359375 49.68359375 C-16.10703046 45.60285737 -10.82250536 40.64501073 -8 35 C-7.87606534 32.4867203 -7.81484888 30.01329886 -7.8125 27.5 C-7.79413086 26.46552734 -7.79413086 26.46552734 -7.77539062 25.41015625 C-7.77011305 23.60522506 -7.87815542 21.80082158 -8 20 C-9.95216435 18.04783565 -11.53199953 17.15173355 -14 16 C-13.525625 15.505 -13.05125 15.01 -12.5625 14.5 C-10.95997834 11.93596534 -10.77965145 10.90982942 -10.5625 8 C-10.27603576 5.04721473 -10.03509509 4.05199273 -8.3125 1.5 C-5.37616329 -0.40465084 -3.43370148 -0.31215468 0 0 Z " fill="#F8C134" transform="translate(76,18)"/>
<path d="M0 0 C-0.33 0.99 -0.66 1.98 -1 3 C-0.44828125 3.23460937 0.1034375 3.46921875 0.671875 3.7109375 C3.59325764 5.32848158 5.79574497 7.36450195 8.25 9.625 C9.14203125 10.44226562 10.0340625 11.25953125 10.953125 12.1015625 C11.96632813 13.04128906 11.96632813 13.04128906 13 14 C12.01 14.99 11.02 15.98 10 17 C10.804375 17.2475 11.60875 17.495 12.4375 17.75 C13.283125 18.1625 14.12875 18.575 15 19 C15.625 21.0625 15.625 21.0625 16 23 C16.99 23.33 17.98 23.66 19 24 C18.67 24.99 18.34 25.98 18 27 C17.608125 26.54625 17.21625 26.0925 16.8125 25.625 C15.08357479 23.86767682 15.08357479 23.86767682 12.73046875 23.1953125 C5.36502703 19.97095604 -1.30337015 12.47811013 -6 6 C-6 5.34 -6 4.68 -6 4 C-6.66 3.67 -7.32 3.34 -8 3 C-5.53387212 -0.1151089 -3.89156016 -0.31553191 0 0 Z " fill="#F7BE2E" transform="translate(18,40)"/>
<path d="M0 0 C4.42350331 0.50554324 6.78071602 1.95015202 10 5 C11 6.66666667 12 8.33333333 13 10 C14.65788785 11.34423339 16.32576317 12.67618483 18 14 C20.08115555 16.26767421 22.05229485 18.61724044 24 21 C23.67 21.66 23.34 22.32 23 23 C22.54625 22.505 22.0925 22.01 21.625 21.5 C20.12364481 19.77390663 20.12364481 19.77390663 18 20 C18.33 21.98 18.66 23.96 19 26 C18.01 25.34 17.02 24.68 16 24 C16 23.34 16 22.68 16 22 C15.443125 21.7525 14.88625 21.505 14.3125 21.25 C10.1847659 19.01879238 7.48907836 17.31278929 5.8125 12.8125 C5.544375 11.884375 5.27625 10.95625 5 10 C4.34 9.67 3.68 9.34 3 9 C2.66666667 7.66666667 2.33333333 6.33333333 2 5 C1.34 4.67 0.68 4.34 0 4 C0 2.68 0 1.36 0 0 Z " fill="#F8BF30" transform="translate(16,10)"/>
<path d="M0 0 C4.5072291 0.48508073 6.42473058 1.9559587 9.5390625 5.18359375 C10.36664063 6.02857422 11.19421875 6.87355469 12.046875 7.74414062 C12.89765625 8.63294922 13.7484375 9.52175781 14.625 10.4375 C16.32343985 12.18821916 18.02387329 13.93700709 19.7265625 15.68359375 C20.47502441 16.46275146 21.22348633 17.24190918 21.99462891 18.04467773 C24.04184443 20.16057608 24.04184443 20.16057608 27 22 C23.21472479 21.48847632 21.55891312 20.79154158 19 18 C18.01 17.67 17.02 17.34 16 17 C15.67 18.32 15.34 19.64 15 21 C14.67 20.01 14.34 19.02 14 18 C12.11683841 16.89163577 12.11683841 16.89163577 10 16 C6.91206745 13.9413783 6.52161393 13.1446688 5 10 C4.34 9.67 3.68 9.34 3 9 C3 8.01 3 7.02 3 6 C2.34 6 1.68 6 1 6 C0.67 4.02 0.34 2.04 0 0 Z " fill="#FBC539" transform="translate(12,23)"/>
<path d="M0 0 C2.75 0 2.75 0 6 1 C7.30519742 2.90008332 8.15867008 4.82773216 9.07421875 6.94140625 C10.7516958 10.67149236 13.38691011 13.38691011 16.25 16.25 C20.01085581 20.01085581 23.49187772 24.00439671 27 28 C23.84918025 28 22.58152302 27.72101535 20 26 C19.87625 25.360625 19.7525 24.72125 19.625 24.0625 C19.14137349 21.61559751 19.14137349 21.61559751 15.9375 20.25 C14.968125 19.8375 13.99875 19.425 13 19 C12.67 19.99 12.34 20.98 12 22 C11.46890625 21.19175781 10.9378125 20.38351563 10.390625 19.55078125 C9.68421875 18.48214844 8.9778125 17.41351562 8.25 16.3125 C7.55390625 15.25675781 6.8578125 14.20101563 6.140625 13.11328125 C4.06823373 10.00045599 4.06823373 10.00045599 1.75 7.28125 C-0.29883116 4.61045224 -0.37545706 3.28524924 0 0 Z " fill="#FBC539" transform="translate(30,6)"/>
<path d="M0 0 C1.32 0 2.64 0 4 0 C4 6.27 4 12.54 4 19 C2.35 19.66 0.7 20.32 -1 21 C-2.5 19.875 -2.5 19.875 -4 18 C-4.36804714 13.42569988 -3.52763853 9.92148336 -2 5.625 C-1.62875 4.56539062 -1.2575 3.50578125 -0.875 2.4140625 C-0.58625 1.61742187 -0.2975 0.82078125 0 0 Z " fill="#FED561" transform="translate(62,35)"/>
<path d="M0 0 C4.07163058 0.0956905 6.32786029 0.45395162 9.51953125 3.046875 C10.27621094 3.93890625 11.03289063 4.8309375 11.8125 5.75 C13.07513672 7.22533203 13.07513672 7.22533203 14.36328125 8.73046875 C17.99906297 13.19175954 21.51497119 17.74450398 24.96875 22.34765625 C26.89290429 24.98054405 26.89290429 24.98054405 29 27 C25.90903637 26.69230226 25.00145148 26.00157288 22.8515625 23.671875 C22.11679687 22.70765625 21.38203125 21.7434375 20.625 20.75 C16.97743153 16.088879 16.97743153 16.088879 12.625 12.125 C10 10 10 10 8.5625 7.375 C6.30059127 3.93689873 3.82921909 3.37273892 0 2 C0 3.32 0 4.64 0 6 C0.99 6.33 1.98 6.66 3 7 C2.67 8.32 2.34 9.64 2 11 C0.5 9.625 0.5 9.625 -1 8 C-1 7.34 -1 6.68 -1 6 C-1.66 6 -2.32 6 -3 6 C-2.42655063 3.13275314 -2.1385485 2.1385485 0 0 Z " fill="#E8A514" transform="translate(16,8)"/>
<path d="M0 0 C0.66 0 1.32 0 2 0 C3.43025226 1.64093257 4.7942239 3.33991003 6.125 5.0625 C11.32291622 11.54736011 16.13354936 17.02350516 24 20 C26.8125 22.4375 26.8125 22.4375 29 25 C29 25.99 29 26.98 29 28 C24.47061433 27.13871015 21.97315619 24.49051484 18.75 21.375 C17.59068585 20.27645438 16.4305318 19.17879444 15.26953125 18.08203125 C14.70959473 17.5504541 14.1496582 17.01887695 13.57275391 16.47119141 C11.57913503 14.6063129 9.5179707 12.82952879 7.4375 11.0625 C4.59887811 8.59595962 2.10081007 6.1512151 0 3 C0 2.01 0 1.02 0 0 Z " fill="#CA7A09" transform="translate(10,44)"/>
<path d="M0 0 C1.32 0 2.64 0 4 0 C5.421875 1.79296875 5.421875 1.79296875 6.75 4.1875 C9.72484305 9.02352691 12.98371525 11.46639425 18 14 C17.67 15.65 17.34 17.3 17 19 C9.11190376 15.43157551 3.71535993 10.85815064 0 3 C0 2.01 0 1.02 0 0 Z " fill="#6D6D6D" transform="translate(0,51)"/>
<path d="M0 0 C0.66 0 1.32 0 2 0 C2.45375 0.61875 2.9075 1.2375 3.375 1.875 C4.81638104 4.12248958 4.81638104 4.12248958 7.0625 4.875 C9 6 9 6 9.75 8.75 C11.32390114 12.84214296 13.31608677 13.92228149 16.82421875 16.359375 C20.38327129 19.04304119 23.57153618 22.25105899 26 26 C26 27.32 26 28.64 26 30 C24.1875 29.8125 24.1875 29.8125 22 29 C20.4375 26.625 20.4375 26.625 19 24 C18.443125 23.443125 17.88625 22.88625 17.3125 22.3125 C16.879375 21.879375 16.44625 21.44625 16 21 C16 20.34 16 19.68 16 19 C15.01 18.67 14.02 18.34 13 18 C11.09765625 15.890625 11.09765625 15.890625 9.0625 13.25 C8.39347656 12.38890625 7.72445313 11.5278125 7.03515625 10.640625 C6.36355469 9.76921875 5.69195312 8.8978125 5 8 C4.27683594 7.12859375 3.55367187 6.2571875 2.80859375 5.359375 C1 3 1 3 0 0 Z " fill="#C66E06" transform="translate(13,14)"/>
<path d="M0 0 C5.71109731 0.79214325 8.70383658 5.66110122 12 10 C13.91528133 13.3122357 15 16.11324153 15 20 C13.68 20 12.36 20 11 20 C10.70867188 19.34773438 10.41734375 18.69546875 10.1171875 18.0234375 C8.07140491 13.66167461 6.26216009 9.91946108 2.6875 6.625 C1.800625 5.75875 0.91375 4.8925 0 4 C0 2.68 0 1.36 0 0 Z " fill="#6E6D6D" transform="translate(46,0)"/>
<path d="M0 0 C0.556875 0.7425 1.11375 1.485 1.6875 2.25 C3.84616907 5.02512825 3.84616907 5.02512825 6.4140625 6.8203125 C9.23321603 9.19657786 10.79753267 11.47363875 12.6875 14.625 C15.03889114 18.55134683 15.03889114 18.55134683 18 22 C18 23.32 18 24.64 18 26 C14.03819311 24.6793977 12.51594588 22.10933664 10.125 18.875 C9.68172363 18.28332031 9.23844727 17.69164063 8.78173828 17.08203125 C7.90813193 15.91337006 7.03743596 14.7425266 6.16992188 13.56933594 C5.21145013 12.28363969 4.2264991 11.0177223 3.234375 9.7578125 C1.20044324 7.12772832 0.04374384 5.41119214 -0.3125 2.0625 C-0.209375 1.381875 -0.10625 0.70125 0 0 Z " fill="#DA9317" transform="translate(27,8)"/>
<path d="M0 0 C2.109375 0.3984375 2.109375 0.3984375 4 1 C-2.00352944 7.49622031 -7.46142664 12.42757949 -16.65234375 13.10546875 C-20.67264603 12.92485617 -24.44604402 11.89343955 -28 10 C-28.66 9.01 -29.32 8.02 -30 7 C-27 7 -27 7 -25.140625 7.97265625 C-20.98941936 9.96493195 -16.47989665 9.61342983 -12 9 C-7.85890607 7.27626107 -4.81841551 4.86388304 -1.75 1.625 C-1.1725 1.08875 -0.595 0.5525 0 0 Z " fill="#B26408" transform="translate(69,66)"/>
<path d="M0 0 C8.28808566 1.20553973 15.62190848 11.12380011 20.4375 17.5 C20.4375 18.49 20.4375 19.48 20.4375 20.5 C19.94870361 19.99549316 19.45990723 19.49098633 18.95629883 18.97119141 C16.72883532 16.68121649 14.48962412 14.40308046 12.25 12.125 C11.48107422 11.3309375 10.71214844 10.536875 9.91992188 9.71875 C9.16904297 8.95820313 8.41816406 8.19765625 7.64453125 7.4140625 C6.61549683 6.3614624 6.61549683 6.3614624 5.56567383 5.28759766 C3.28620498 3.37291704 1.24305207 2.44732927 -1.5625 1.5 C-1.2325 3.48 -0.9025 5.46 -0.5625 7.5 C0.0975 7.5 0.7575 7.5 1.4375 7.5 C1.4375 8.49 1.4375 9.48 1.4375 10.5 C2.7575 11.16 4.0775 11.82 5.4375 12.5 C5.1075 13.49 4.7775 14.48 4.4375 15.5 C3.95539062 14.93410156 3.47328125 14.36820313 2.9765625 13.78515625 C2.34492188 13.05167969 1.71328125 12.31820312 1.0625 11.5625 C0.43601562 10.83160156 -0.19046875 10.10070312 -0.8359375 9.34765625 C-2.43997714 7.41619094 -2.43997714 7.41619094 -4.5625 6.5 C-3.51907809 0.68664938 -3.51907809 0.68664938 0 0 Z " fill="#E19A15" transform="translate(13.5625,21.5)"/>
<path d="M0 0 C3.98336149 0.5003974 4.89965652 1.63254849 7.390625 4.70703125 C8.05578125 5.50753906 8.7209375 6.30804688 9.40625 7.1328125 C12.82950713 11.59692484 15.140625 15.65983455 15.140625 21.39453125 C14.58375 20.69328125 14.026875 19.99203125 13.453125 19.26953125 C11.86972147 17.30097551 10.21905662 15.38519445 8.515625 13.51953125 C5.84019042 9.9992226 5.07611684 7.6467669 4.140625 3.39453125 C1.170625 2.89953125 1.170625 2.89953125 -1.859375 2.39453125 C-1.199375 5.03453125 -0.539375 7.67453125 0.140625 10.39453125 C-4.61223541 6.10162507 -4.61223541 6.10162507 -4.859375 2.39453125 C-2.859375 0.39453125 -2.859375 0.39453125 0 0 Z " fill="#E5A019" transform="translate(31.859375,3.60546875)"/>
<path d="M0 0 C0.66 0.33 1.32 0.66 2 1 C-9.41506175 14.5533298 -9.41506175 14.5533298 -16.7265625 15.265625 C-17.68304688 15.26046875 -18.63953125 15.2553125 -19.625 15.25 C-20.58664063 15.25515625 -21.54828125 15.2603125 -22.5390625 15.265625 C-25 15 -25 15 -27 13 C-25.948125 12.99613281 -25.948125 12.99613281 -24.875 12.9921875 C-17.34855784 12.68540317 -13.58873338 10.87744004 -8 6 C-3.4 3 -3.4 3 -1 3 C-0.67 2.01 -0.34 1.02 0 0 Z " fill="#D98A04" transform="translate(71,61)"/>
<path d="M0 0 C0 3 0 3 -1.79296875 4.8671875 C-3.43326751 6.24257667 -5.07390962 7.61755643 -6.71484375 8.9921875 C-9.16532269 11.00694172 -9.16532269 11.00694172 -11.25 14 C-15.31984733 16.95988897 -19.02108094 16.6752464 -23.94921875 16.5078125 C-26.96577573 16.00569674 -28.19950301 15.63126498 -30.3125 13.5 C-30.869375 12.675 -31.42625 11.85 -32 11 C-26.125 11.875 -26.125 11.875 -25 13 C-19.69189295 13.97315296 -17.25722919 13.7897606 -12.6171875 10.875 C-8.1655671 7.55118137 -3.83197009 4.03294755 0 0 Z " fill="#F2B623" transform="translate(69,56)"/>
<path d="M0 0 C1.32 0 2.64 0 4 0 C4.96485877 1.39738167 5.91916216 2.80491208 6.78515625 4.265625 C8.97771548 7.39583817 12.02376865 9.64242348 15 12 C14.67 12.99 14.34 13.98 14 15 C8.11483607 13.97009631 5.34099677 10.5466593 1.5390625 6.2890625 C0 4 0 4 0 0 Z " fill="#6A6A6A" transform="translate(6,49)"/>
<path d="M0 0 C0.495 1.485 0.495 1.485 1 3 C-3.42196943 7.03219097 -7.75463114 10.12989251 -13 13 C-13.59554687 13.52722656 -14.19109375 14.05445312 -14.8046875 14.59765625 C-17.78769879 16.50317414 -19.92663403 16.33117609 -23.4375 16.25 C-24.54996094 16.23453125 -25.66242187 16.2190625 -26.80859375 16.203125 C-29.63874445 16.02299301 -32.24221877 15.63918668 -35 15 C-34.34 14.67 -33.68 14.34 -33 14 C-33 13.34 -33 12.68 -33 12 C-32.01 12.33 -31.02 12.66 -30 13 C-22.59824686 14.01984383 -17.21711369 13.80393276 -11.0625 9.3125 C-9.35094829 7.90372279 -7.66086986 6.46818725 -6 5 C-4.77223626 3.99827803 -3.54335909 2.99791613 -2.3125 2 C-1.549375 1.34 -0.78625 0.68 0 0 Z " fill="#E5A414" transform="translate(72,58)"/>
<path d="M0 0 C3.10699073 1.35261234 4.87539092 2.75243567 7 5.375 C11.96983814 11.26920629 17.51273149 16.59382413 23 22 C22.67 22.99 22.34 23.98 22 25 C17.66666667 20.66666667 13.33333333 16.33333333 9 12 C7.98679687 11.03900391 7.98679687 11.03900391 6.953125 10.05859375 C6.22609375 9.35863281 5.4990625 8.65867187 4.75 7.9375 C3.72132812 6.96103516 3.72132812 6.96103516 2.671875 5.96484375 C0.93164751 3.91966985 0.39722943 2.62288259 0 0 Z " fill="#C47609" transform="translate(9,28)"/>
<path d="M0 0 C5.36664349 2.35807062 8.78141 6.56282 11.375 11.75 C12 14 12 14 12 17 C10.68 17 9.36 17 8 17 C7.68546875 16.32453125 7.3709375 15.6490625 7.046875 14.953125 C3.93666114 8.32416431 3.93666114 8.32416431 -1 3 C-0.67 2.01 -0.34 1.02 0 0 Z " fill="#686868" transform="translate(43,5)"/>
<path d="M0 0 C3.67420866 0.30618405 4.78135513 0.75771784 7.3125 3.5625 C8.1478125 4.7690625 8.1478125 4.7690625 9 6 C8.34 6 7.68 6 7 6 C6.67 6.66 6.34 7.32 6 8 C6.804375 8.2475 7.60875 8.495 8.4375 8.75 C9.283125 9.1625 10.12875 9.575 11 10 C11.625 12.0625 11.625 12.0625 12 14 C12.99 14.33 13.98 14.66 15 15 C14.67 15.99 14.34 16.98 14 18 C8.61472431 13.62617203 3.49128097 9.0832926 0 3 C0 2.01 0 1.02 0 0 Z " fill="#FBC537" transform="translate(22,49)"/>
<path d="M0 0 C3.70383739 3.4859646 6.56597905 7.08267288 9.375 11.328125 C11.21128763 13.53320083 11.21128763 13.53320083 16 14 C16.66 10.7 17.32 7.4 18 4 C18.66 4 19.32 4 20 4 C20.46174617 12.00360036 20.46174617 12.00360036 18.8125 15.5625 C17 17 17 17 14.67578125 17.38671875 C10.90097901 16.84116339 9.79742392 15.13027037 7.375 12.25 C6.61960937 11.36828125 5.86421875 10.4865625 5.0859375 9.578125 C4.39757813 8.72734375 3.70921875 7.8765625 3 7 C2.12214844 5.94039062 2.12214844 5.94039062 1.2265625 4.859375 C0 3 0 3 0 0 Z " fill="#D48309" transform="translate(45,18)"/>
<path d="M0 0 C1 1 2 2 3 3 C3.721875 3.70125 4.44375 4.4025 5.1875 5.125 C8.98081004 8.90667412 12.46761512 12.97676263 16 17 C12.84918025 17 11.58152302 16.72101535 9 15 C8.87625 14.360625 8.7525 13.72125 8.625 13.0625 C8.14137349 10.61559751 8.14137349 10.61559751 4.9375 9.25 C3.968125 8.8375 2.99875 8.425 2 8 C1.67 8.99 1.34 9.98 1 11 C-1.78637633 6.8204355 -0.79562512 4.85331323 0 0 Z " fill="#FAC234" transform="translate(41,17)"/>
<path d="M0 0 C3 3 6 6 9 9 C8.67 9.66 8.34 10.32 8 11 C7.54625 10.505 7.0925 10.01 6.625 9.5 C5.12364481 7.77390663 5.12364481 7.77390663 3 8 C3.33 9.98 3.66 11.96 4 14 C3.01 13.34 2.02 12.68 1 12 C1 11.34 1 10.68 1 10 C0.443125 9.7525 -0.11375 9.505 -0.6875 9.25 C-3.39971127 7.78393985 -5.63587365 5.97010529 -8 4 C-7.67 3.34 -7.34 2.68 -7 2 C-6.236875 2.66 -5.47375 3.32 -4.6875 4 C-2.15722061 6.29850538 -2.15722061 6.29850538 1 6 C0.67 4.02 0.34 2.04 0 0 Z " fill="#F1B52A" transform="translate(31,22)"/>
<path d="M0 0 C2.375 0.3125 2.375 0.3125 5 1 C7 4 7 4 6.625 6.1875 C6.41875 6.785625 6.2125 7.38375 6 8 C3.64035727 7.59316505 2.14065912 7.10185661 0.1875 5.6875 C-1 4 -1 4 -0.6875 1.8125 C-0.460625 1.214375 -0.23375 0.61625 0 0 Z " fill="#FDC93F" transform="translate(26,21)"/>
<path d="M0 0 C0.33 0 0.66 0 1 0 C1 6.27 1 12.54 1 19 C-2.50244464 15.49755536 -2.05751817 10.44483508 -2.1875 5.6875 C-2 2 -2 2 0 0 Z " fill="#F0B526" transform="translate(71,27)"/>
<path d="M0 0 C1.2065625 0.0309375 1.2065625 0.0309375 2.4375 0.0625 C2.1075 0.7225 1.7775 1.3825 1.4375 2.0625 C0.4475 1.7325 -0.5425 1.4025 -1.5625 1.0625 C-1.2325 3.0425 -0.9025 5.0225 -0.5625 7.0625 C0.0975 7.0625 0.7575 7.0625 1.4375 7.0625 C1.4375 8.0525 1.4375 9.0425 1.4375 10.0625 C2.7575 10.7225 4.0775 11.3825 5.4375 12.0625 C5.1075 13.0525 4.7775 14.0425 4.4375 15.0625 C3.95539062 14.49660156 3.47328125 13.93070313 2.9765625 13.34765625 C2.34492188 12.61417969 1.71328125 11.88070312 1.0625 11.125 C0.43601562 10.39410156 -0.19046875 9.66320312 -0.8359375 8.91015625 C-2.43997714 6.97869094 -2.43997714 6.97869094 -4.5625 6.0625 C-3.48963568 0.08511307 -3.48963568 0.08511307 0 0 Z " fill="#EAA921" transform="translate(13.5625,21.9375)"/>
<path d="M0 0 C3.625 0.375 3.625 0.375 7 1 C7 1.99 7 2.98 7 4 C4.69 3.34 2.38 2.68 0 2 C0 3.32 0 4.64 0 6 C0.99 6.33 1.98 6.66 3 7 C2.67 8.32 2.34 9.64 2 11 C0.5 9.625 0.5 9.625 -1 8 C-1 7.34 -1 6.68 -1 6 C-1.66 6 -2.32 6 -3 6 C-2.42655063 3.13275314 -2.1385485 2.1385485 0 0 Z " fill="#E9A520" transform="translate(16,8)"/>
<path d="M0 0 C0.33 1.98 0.66 3.96 1 6 C-2.01031744 6.93423645 -2.86650268 7.04449911 -6 6 C-6 5.34 -6 4.68 -6 4 C-6.66 3.67 -7.32 3.34 -8 3 C-5.53387212 -0.1151089 -3.89156016 -0.31553191 0 0 Z " fill="#F7C232" transform="translate(18,40)"/>
<path d="M0 0 C1.875 1.5 1.875 1.5 3 3 C0.99902368 3 -1.00292042 2.93731747 -3 2.8125 C-5.90569537 2.77951119 -5.90569537 2.77951119 -7.8125 4 C-9.70103144 7.18068454 -9.69956547 10.33469879 -10 14 C-10.33 14 -10.66 14 -11 14 C-11.72923092 10.95711826 -12.20433827 8.1331868 -12 5 C-8.448791 0.75587217 -5.54270597 -0.98536995 0 0 Z " fill="#E4A525" transform="translate(76,16)"/>
<path d="M0 0 C0.86625 0.37125 0.86625 0.37125 1.75 0.75 C1.09 2.07 0.43 3.39 -0.25 4.75 C-0.91 4.75 -1.57 4.75 -2.25 4.75 C-2.53875 5.389375 -2.8275 6.02875 -3.125 6.6875 C-4.25 8.75 -4.25 8.75 -6.25 9.75 C-6.58102914 6.1086795 -6.67019439 4.33527075 -4.5 1.3125 C-2.25 -0.25 -2.25 -0.25 0 0 Z " fill="#FBCA49" transform="translate(73.25,19.25)"/>
<path d="M0 0 C4.79447885 0.88513456 7.64089245 3.6084373 11 7 C12.9375 9.875 12.9375 9.875 14 12 C10.31291925 10.42351454 7.70126855 8.12557062 4.75 5.4375 C3.85796875 4.63183594 2.9659375 3.82617188 2.046875 2.99609375 C1.37140625 2.33738281 0.6959375 1.67867187 0 1 C0 0.67 0 0.34 0 0 Z " fill="#EBAB1C" transform="translate(17,51)"/>
<path d="M0 0 C4.75 0.875 4.75 0.875 7 2 C7.625 4.0625 7.625 4.0625 8 6 C7.01 6.66 6.02 7.32 5 8 C2.5 6.25 2.5 6.25 0 4 C0 2.68 0 1.36 0 0 Z " fill="#FCC83F" transform="translate(16,10)"/>
<path d="M0 0 C0 3 0 3 -1.59375 4.66015625 C-4.70289992 6.39138746 -6.95430275 6.43343383 -10.5 6.4375 C-12.18609375 6.46650391 -12.18609375 6.46650391 -13.90625 6.49609375 C-17.56298187 5.90972387 -18.71143003 4.83266626 -21 2 C-15.125 2.875 -15.125 2.875 -14 4 C-9.2897723 4.5936444 -5.97278721 4.63528961 -1.9375 2 C-1.298125 1.34 -0.65875 0.68 0 0 Z " fill="#F9C02F" transform="translate(58,65)"/>
<path d="M0 0 C3.17903494 1.42557621 5.53658432 3.1773152 8.125 5.5 C8.80820312 6.1084375 9.49140625 6.716875 10.1953125 7.34375 C11.49119988 8.53304924 12.75626434 9.75626434 14 11 C14.99 11 15.98 11 17 11 C17 11.66 17 12.32 17 13 C12.3144268 12.52891903 10.16873416 10.70898637 6.8125 7.5 C3.6654128 4.38154906 3.6654128 4.38154906 0 2 C0 1.34 0 0.68 0 0 Z " fill="#DB9311" transform="translate(17,41)"/>
<path d="M0 0 C2.46409136 2.92040458 4.70808681 5.93898897 6.8125 9.125 C7.25207031 9.78757812 7.69164062 10.45015625 8.14453125 11.1328125 C9 13 9 13 8 16 C6.65216541 14.28211261 5.32220557 12.5501903 4 10.8125 C3.2575 9.84957031 2.515 8.88664062 1.75 7.89453125 C-0.07943499 4.86861311 -0.40394708 3.45248521 0 0 Z " fill="#C5790A" transform="translate(27,8)"/>
<path d="M0 0 C0.66 0.33 1.32 0.66 2 1 C0.6875 3.5 0.6875 3.5 -2 6 C-5.70886921 6.56427405 -9.29003767 6.55943876 -13 6 C-13.66 5.34 -14.32 4.68 -15 4 C-13.87851562 3.94392578 -13.87851562 3.94392578 -12.734375 3.88671875 C-11.74953125 3.82097656 -10.7646875 3.75523438 -9.75 3.6875 C-8.77546875 3.62949219 -7.8009375 3.57148437 -6.796875 3.51171875 C-3.74658389 2.95363476 -2.29288724 2.03630224 0 0 Z " fill="#DE9408" transform="translate(59,70)"/>
<path d="M0 0 C1.2375 0.7115625 1.2375 0.7115625 2.5 1.4375 C6.52795901 3.23569599 9.63173579 3.6234255 14 4 C13.01 4.33 12.02 4.66 11 5 C10.67 5.66 10.34 6.32 10 7 C8.53775201 6.57576756 7.08026588 6.13509755 5.625 5.6875 C4.81289063 5.44386719 4.00078125 5.20023437 3.1640625 4.94921875 C1 4 1 4 -1 1 C-0.67 0.67 -0.34 0.34 0 0 Z " fill="#BF6B06" transform="translate(40,72)"/>
<path d="M0 0 C0.99 0 1.98 0 3 0 C2.67 2.31 2.34 4.62 2 7 C1.01 7.33 0.02 7.66 -1 8 C-2 7 -2 7 -2.1875 4.5625 C-2 2 -2 2 0 0 Z " fill="#FED45E" transform="translate(43,37)"/>
<path d="M0 0 C3.83092692 1.51175591 5.65104101 3.76409927 8.125 7 C10.91229157 10.63200604 10.91229157 10.63200604 14 14 C10.66839874 13.75090832 9.7934824 12.78472105 7.421875 10.3125 C6.52155309 9.21622568 5.6311788 8.11171977 4.75 7 C4.29109375 6.44054687 3.8321875 5.88109375 3.359375 5.3046875 C0 1.16545759 0 1.16545759 0 0 Z " fill="#E29914" transform="translate(31,21)"/>
<path d="M0 0 C4.54109672 4.26587874 8.24735246 9.03612328 12 14 C11.67 14.66 11.34 15.32 11 16 C9.72719706 14.58510266 8.4568417 13.16800334 7.1875 11.75 C6.47980469 10.96109375 5.77210937 10.1721875 5.04296875 9.359375 C0 3.53537285 0 3.53537285 0 0 Z " fill="#DD9411" transform="translate(45,18)"/>
<path d="M0 0 C1.98 0 3.96 0 6 0 C6.71484375 1.765625 6.71484375 1.765625 7 4 C5.56640625 5.921875 5.56640625 5.921875 3.5625 7.75 C2.57443359 8.67039062 2.57443359 8.67039062 1.56640625 9.609375 C0.79103516 10.29773438 0.79103516 10.29773438 0 11 C0 8 0 8 1 6 C1.66 6 2.32 6 3 6 C3.33 4.68 3.66 3.36 4 2 C2.35 2 0.7 2 -1 2 C-0.67 1.34 -0.34 0.68 0 0 Z " fill="#F4BE39" transform="translate(70,18)"/>
<path d="M0 0 C0.94875 0.04125 1.8975 0.0825 2.875 0.125 C2.545 1.115 2.215 2.105 1.875 3.125 C0.555 2.795 -0.765 2.465 -2.125 2.125 C-1.465 4.765 -0.805 7.405 -0.125 10.125 C-4.87786041 5.83209382 -4.87786041 5.83209382 -5.125 2.125 C-3.125 0.125 -3.125 0.125 0 0 Z " fill="#EAAC27" transform="translate(32.125,3.875)"/>
<path d="M0 0 C0.99 0.66 1.98 1.32 3 2 C3 2.99 3 3.98 3 5 C3.99 5.33 4.98 5.66 6 6 C5.67 6.99 5.34 7.98 5 9 C2.36 6.69 -0.28 4.38 -3 2 C-2.01 1.34 -1.02 0.68 0 0 Z " fill="#F8BE2D" transform="translate(31,58)"/>
<path d="M0 0 C1.32 0.66 2.64 1.32 4 2 C4 3.32 4 4.64 4 6 C2.68 5.67 1.36 5.34 0 5 C-0.5625 3.0625 -0.5625 3.0625 -1 1 C-0.67 0.67 -0.34 0.34 0 0 Z " fill="#FED153" transform="translate(34,29)"/>
<path d="M0 0 C2.91517292 1.07401108 4.77810176 1.77810176 7 4 C7 5.32 7 6.64 7 8 C3.28631113 6.76210371 2.22645819 5.14775123 0 2 C0 1.34 0 0.68 0 0 Z " fill="#C77B0C" transform="translate(38,26)"/>
<path d="M0 0 C0.66 0 1.32 0 2 0 C2.45375 0.61875 2.9075 1.2375 3.375 1.875 C4.83435386 4.12108696 4.83435386 4.12108696 7.125 5 C7.74375 5.33 8.3625 5.66 9 6 C9.6171875 8.0625 9.6171875 8.0625 10 10 C2.4726477 5.88621444 2.4726477 5.88621444 0.5 2.1875 C0.335 1.465625 0.17 0.74375 0 0 Z " fill="#CE840F" transform="translate(13,14)"/>
<path d="M0 0 C0.33 0.99 0.66 1.98 1 3 C-1.31 4.98 -3.62 6.96 -6 9 C-6.66 8.67 -7.32 8.34 -8 8 C-5.58443874 4.80800833 -3.31996462 2.25283313 0 0 Z " fill="#E29B0C" transform="translate(72,58)"/>
<path d="M0 0 C1.17825358 0.90172468 2.34231577 1.82201502 3.5 2.75 C4.1496875 3.26046875 4.799375 3.7709375 5.46875 4.296875 C7 6 7 6 7 10 C5.68 9.67 4.36 9.34 3 9 C3.66 8.67 4.32 8.34 5 8 C4.175 7.05125 3.35 6.1025 2.5 5.125 C0 2.25 0 2.25 0 0 Z " fill="#D89116" transform="translate(32,34)"/>
<path d="M0 0 C1 4 1 4 -0.4375 6.75 C-1.2109375 7.86375 -1.2109375 7.86375 -2 9 C-2.99 8.67 -3.98 8.34 -5 8 C-3.35 5.36 -1.7 2.72 0 0 Z " fill="#CC7E17" transform="translate(75,57)"/>
<path d="M0 0 C3.26008643 3.16952847 6.22237877 6.39937989 9 10 C8.401875 9.690625 7.80375 9.38125 7.1875 9.0625 C4.91043228 7.89790296 4.91043228 7.89790296 2 7 C0.8125 3.4375 0.8125 3.4375 0 0 Z " fill="#F3B927" transform="translate(48,25)"/>
<path d="M0 0 C-0.4640625 0.7425 -0.4640625 0.7425 -0.9375 1.5 C-2.41644382 4.97986781 -2.62402851 8.24028509 -3 12 C-3.33 12 -3.66 12 -4 12 C-4.24954005 10.56589632 -4.47392642 9.12739928 -4.6875 7.6875 C-4.81511719 6.88699219 -4.94273438 6.08648437 -5.07421875 5.26171875 C-5 3 -5 3 -3.64453125 1.20703125 C-2 0 -2 0 0 0 Z " fill="#E29B1A" transform="translate(69,18)"/>
<path d="M0 0 C2.53910197 0.38520564 3.72751123 0.70097943 5.484375 2.62890625 C5.90203125 3.26699219 6.3196875 3.90507813 6.75 4.5625 C7.17796875 5.20316406 7.6059375 5.84382813 8.046875 6.50390625 C8.36140625 6.99761719 8.6759375 7.49132813 9 8 C4.7257442 6.4169423 2.73468206 3.49431596 0 0 Z " fill="#E19A12" transform="translate(17,51)"/>
</svg>
