<?xml version="1.0" encoding="UTF-8"?>
<svg version="1.1" xmlns="http://www.w3.org/2000/svg" width="144" height="180">
<path d="M0 0 C1.28016998 -0.00700928 2.56033997 -0.01401855 3.87930298 -0.02124023 C7.38351773 -0.03944825 10.88726049 -0.0324169 14.39148331 -0.01972389 C18.06202701 -0.00958296 21.73253084 -0.01899259 25.40307617 -0.02526855 C31.56664267 -0.03254181 37.73001733 -0.02296584 43.89355469 -0.00390625 C51.0151987 0.01786207 58.13638463 0.01081045 65.25801754 -0.01121187 C71.37708165 -0.02937518 77.49600801 -0.0319197 83.61509037 -0.0214572 C87.26775176 -0.01522731 90.92019797 -0.01437252 94.57284546 -0.02760315 C98.64519291 -0.04132417 102.71675308 -0.022297 106.7890625 0 C108.60176132 -0.01214539 108.60176132 -0.01214539 110.45108032 -0.02453613 C118.58282226 0.05807129 118.58282226 0.05807129 122.64306641 2.35656738 C125.03946622 5.31331857 125.0305352 7.24725795 124.95703125 11.01757812 C124.95832031 12.14164063 124.95960938 13.26570313 124.9609375 14.42382812 C124.27329086 18.1798015 123.34934809 19.1669663 120.39453125 21.51757812 C117.82078552 22.02094269 117.82078552 22.02094269 114.85327148 22.0255127 C113.72605682 22.03679199 112.59884216 22.04807129 111.43746948 22.05969238 C110.2051358 22.05159546 108.97280212 22.04349854 107.703125 22.03515625 C106.40198761 22.04216553 105.10085022 22.0491748 103.76028442 22.05639648 C100.1940991 22.074628 96.62837677 22.06756341 93.06218338 22.05488014 C89.32977299 22.04475141 85.59740218 22.05414546 81.86499023 22.0604248 C75.59709558 22.06770161 69.32938947 22.05811276 63.06152344 22.0390625 C55.81548294 22.01729351 48.56989262 22.02434487 41.32386303 22.04636812 C35.10207612 22.0645213 28.88042472 22.06708091 22.65861988 22.05661345 C18.94281955 22.05037799 15.22723082 22.0495441 11.51144409 22.0627594 C7.36933743 22.07646196 3.2280066 22.05746974 -0.9140625 22.03515625 C-2.14639618 22.04325317 -3.37872986 22.0513501 -4.64840698 22.05969238 C-6.33922897 22.04277344 -6.33922897 22.04277344 -8.06420898 22.0255127 C-9.04348862 22.02400459 -10.02276825 22.02249649 -11.03172302 22.02094269 C-14.35489008 21.37100881 -15.54390356 20.15589549 -17.60546875 17.51757812 C-18.171875 14.42382812 -18.171875 14.42382812 -18.16796875 11.01757812 C-18.18988281 9.89351562 -18.21179688 8.76945312 -18.234375 7.61132812 C-17.60546875 4.51757812 -17.60546875 4.51757812 -15.85400391 2.35656738 C-10.7565192 -0.52910852 -5.76037633 -0.03859549 0 0 Z " fill="#1665C1" transform="translate(18.60546875,47.482421875)"/>
<path d="M0 0 C2.375 0.9375 2.375 0.9375 4 3 C4.33288775 6.02820472 4.22893323 8.96663466 4 12 C0.44859386 13.92878092 -1.92427539 14.33964372 -6 14 C-8.375 13 -8.375 13 -10 12 C-10.48372093 4.74418605 -10.48372093 4.74418605 -8.375 1.5 C-5.29889257 -0.44280469 -3.58110811 -0.52224493 0 0 Z " fill="#8AB9E1" transform="translate(16,52)"/>
<path d="M0 0 C0.66 0 1.32 0 2 0 C2.33 1.32 2.66 2.64 3 4 C3.66 4 4.32 4 5 4 C5.33 2.68 5.66 1.36 6 0 C8.64 0 11.28 0 14 0 C13.67 1.32 13.34 2.64 13 4 C12.01 4 11.02 4 10 4 C10 4.66 10 5.32 10 6 C11.32 6 12.64 6 14 6 C14 6.66 14 7.32 14 8 C12.02 8 10.04 8 8 8 C7.67 6.35 7.34 4.7 7 3 C6.34 4.65 5.68 6.3 5 8 C4.01 7.67 3.02 7.34 2 7 C0.8125 3.4375 0.8125 3.4375 0 0 Z " fill="#B9D0EC" transform="translate(44,55)"/>
<path d="M0 0 C2.4375 0.6875 2.4375 0.6875 5 2 C5.8125 4.625 5.8125 4.625 6 7 C4.02 7.99 4.02 7.99 2 9 C2.33 8.01 2.66 7.02 3 6 C2.01 6 1.02 6 0 6 C0.33 6.99 0.66 7.98 1 9 C-0.65 8.67 -2.3 8.34 -4 8 C-3.67 6.35 -3.34 4.7 -3 3 C-2.34 3 -1.68 3 -1 3 C-0.67 2.01 -0.34 1.02 0 0 Z " fill="#A2D5F2" transform="translate(12,55)"/>
<path d="M0 0 C1.32 0 2.64 0 4 0 C3.67 0.99 3.34 1.98 3 3 C3.66 3.33 4.32 3.66 5 4 C5 2.68 5 1.36 5 0 C5.66 0 6.32 0 7 0 C7 2.64 7 5.28 7 8 C4.33333333 8 1.66666667 8 -1 8 C-1 4.88742431 -0.82638376 2.89234315 0 0 Z " fill="#C5D8EF" transform="translate(68,55)"/>
<path d="M0 0 C1.65 0 3.3 0 5 0 C6 4.75 6 4.75 6 7 C4.68 6.67 3.36 6.34 2 6 C2 6.66 2 7.32 2 8 C1.34 8 0.68 8 0 8 C0 5.36 0 2.72 0 0 Z " fill="#B2CBEA" transform="translate(59,55)"/>
<path d="M0 0 C0.66 0 1.32 0 2 0 C2.66 0.99 3.32 1.98 4 3 C4.33 2.01 4.66 1.02 5 0 C5.66 0 6.32 0 7 0 C7 2.64 7 5.28 7 8 C6.01 7.67 5.02 7.34 4 7 C3.67 6.34 3.34 5.68 3 5 C2.67 5.99 2.34 6.98 2 8 C1.34 8 0.68 8 0 8 C0 5.36 0 2.72 0 0 Z " fill="#CCDCF1" transform="translate(33,55)"/>
<path d="M0 0 C0.33 0 0.66 0 1 0 C1 2.97 1 5.94 1 9 C-2.99110319 10.9955516 -4.69986566 11.19546065 -9 11 C-9.33 10.34 -9.66 9.68 -10 9 C-9.01 8.67 -8.02 8.34 -7 8 C-7 7.34 -7 6.68 -7 6 C-6.01 6 -5.02 6 -4 6 C-3.67 6.66 -3.34 7.32 -3 8 C-1.92474806 5.34771188 -0.90543849 2.71631546 0 0 Z " fill="#5FA7E7" transform="translate(19,55)"/>
<path d="M0 0 C1.32 0.99 2.64 1.98 4 3 C4.66 2.01 5.32 1.02 6 0 C6.66 0 7.32 0 8 0 C8 2.64 8 5.28 8 8 C7.34 8 6.68 8 6 8 C5.67 7.34 5.34 6.68 5 6 C4.01 6.495 4.01 6.495 3 7 C2.67 6.34 2.34 5.68 2 5 C1.34 5.66 0.68 6.32 0 7 C0 4.69 0 2.38 0 0 Z " fill="#CFDEF1" transform="translate(101,55)"/>
<path d="M0 0 C0.99 0.33 1.98 0.66 3 1 C4.1875 4.5625 4.1875 4.5625 5 8 C4.34 8 3.68 8 3 8 C3 7.34 3 6.68 3 6 C1.35 6.33 -0.3 6.66 -2 7 C-1.125 2.25 -1.125 2.25 0 0 Z " fill="#C5D7EF" transform="translate(85,55)"/>
<path d="M0 0 C3 2 3 2 3.6875 4.625 C3.790625 5.40875 3.89375 6.1925 4 7 C2.824375 6.9690625 2.824375 6.9690625 1.625 6.9375 C-0.98114961 6.81315937 -0.98114961 6.81315937 -3 8 C-2.45276317 4.62537285 -1.9451 2.91765 0 0 Z " fill="#C9DAF0" transform="translate(131,55)"/>
<path d="M0 0 C2.97 0.495 2.97 0.495 6 1 C5.67 2.32 5.34 3.64 5 5 C4.01 5 3.02 5 2 5 C2.33 4.34 2.66 3.68 3 3 C2.01 3 1.02 3 0 3 C0.33 3.99 0.66 4.98 1 6 C0.01 5.67 -0.98 5.34 -2 5 C-2 4.01 -2 3.02 -2 2 C-1.34 2 -0.68 2 0 2 C0 1.34 0 0.68 0 0 Z " fill="#B7EAFA" transform="translate(12,58)"/>
<path d="M0 0 C0.33 0 0.66 0 1 0 C1 1.98 1 3.96 1 6 C1.99 6 2.98 6 4 6 C4 4.02 4 2.04 4 0 C4.66 0 5.32 0 6 0 C6 2.31 6 4.62 6 7 C4.34385343 7.38218767 2.67542976 7.71395102 1 8 C0 7 0 7 -0.0625 3.4375 C-0.041875 2.303125 -0.02125 1.16875 0 0 Z " fill="#BFD4EE" transform="translate(25,55)"/>
<path d="M0 0 C0.66 0 1.32 0 2 0 C2.33 1.32 2.66 2.64 3 4 C3.66 4 4.32 4 5 4 C5 3.01 5 2.02 5 1 C5.66 1 6.32 1 7 1 C6.34 3.31 5.68 5.62 5 8 C4.01 7.67 3.02 7.34 2 7 C0.8125 3.4375 0.8125 3.4375 0 0 Z " fill="#C8DAF0" transform="translate(44,55)"/>
<path d="M0 0 C2.475 0.99 2.475 0.99 5 2 C5 3.98 5 5.96 5 8 C3.02 6.35 1.04 4.7 -1 3 C-0.67 2.01 -0.34 1.02 0 0 Z " fill="#7CB1E6" transform="translate(14,52)"/>
<path d="M0 0 C1.98 0 3.96 0 6 0 C6 0.66 6 1.32 6 2 C5.34 2 4.68 2 4 2 C4 3.98 4 5.96 4 8 C3.34 8 2.68 8 2 8 C2 6.02 2 4.04 2 2 C1.34 2 0.68 2 0 2 C0 1.34 0 0.68 0 0 Z " fill="#B9CFEC" transform="translate(76,55)"/>
<path d="M0 0 C0.66 0 1.32 0 2 0 C2 1.98 2 3.96 2 6 C2.99 6 3.98 6 5 6 C5 6.66 5 7.32 5 8 C3.35 8 1.7 8 0 8 C0 5.36 0 2.72 0 0 Z " fill="#B2CBEA" transform="translate(119,55)"/>
<path d="M0 0 C0.66 0.33 1.32 0.66 2 1 C2 3.31 2 5.62 2 8 C0.68 8 -0.64 8 -2 8 C-2 6.02 -2 4.04 -2 2 C-1.34 2 -0.68 2 0 2 C0 1.34 0 0.68 0 0 Z " fill="#3478C9" transform="translate(82,55)"/>
<path d="M0 0 C0.66 0 1.32 0 2 0 C2.33 0.99 2.66 1.98 3 3 C3.99 3.66 4.98 4.32 6 5 C3.69 5.66 1.38 6.32 -1 7 C-0.67 4.69 -0.34 2.38 0 0 Z " fill="#4885CE" transform="translate(65,56)"/>
<path d="M0 0 C0.66 0 1.32 0 2 0 C2 2.64 2 5.28 2 8 C1.34 8 0.68 8 0 8 C-0.98120464 4.94736336 -0.98120464 3.05263664 0 0 Z " fill="#A3C1E6" transform="translate(73,55)"/>
</svg>
