<?xml version="1.0" encoding="UTF-8"?>
<svg version="1.1" xmlns="http://www.w3.org/2000/svg" width="229" height="113">
<path d="M0 0 C0.86166828 -0.00538554 1.72333655 -0.01077108 2.61111599 -0.01631981 C5.49764903 -0.03062425 8.38372508 -0.02348952 11.27027893 -0.01637268 C13.34007639 -0.02207494 15.4098707 -0.02903864 17.47966003 -0.03717041 C23.10153359 -0.05513272 28.72325133 -0.05392765 34.34514499 -0.04822803 C39.03714153 -0.04514065 43.72910794 -0.05122359 48.4211002 -0.05726677 C59.48917869 -0.07132046 70.55718 -0.06974364 81.6252594 -0.05836487 C93.04685753 -0.04688219 104.4682209 -0.06096003 115.88978809 -0.08776134 C125.69374002 -0.10990621 135.49761819 -0.11655847 145.30159336 -0.11068493 C151.15806356 -0.10731134 157.01438325 -0.10975726 162.87083244 -0.12693596 C168.37762315 -0.14238361 173.8840656 -0.13847357 179.39084244 -0.11963081 C181.41208517 -0.11593893 183.43335357 -0.11907078 185.45457268 -0.1295166 C188.21360791 -0.14268708 190.97148358 -0.13121401 193.73046875 -0.11352539 C194.53057119 -0.1231304 195.33067364 -0.1327354 196.15502161 -0.14263147 C201.3607173 -0.07394884 204.27460398 0.98778659 208.4287262 4.38768005 C212.11590067 8.73548913 211.86151176 13.05367276 211.83277893 18.48899841 C211.83964218 19.39692642 211.84650543 20.30485443 211.85357666 21.24029541 C211.87185111 24.2361981 211.86800618 27.23157743 211.86231995 30.2275238 C211.86688146 32.31350881 211.87218694 34.39949232 211.87820435 36.48547363 C211.88713675 40.85585132 211.88471082 45.22604628 211.87477112 49.59642029 C211.8632819 55.19309093 211.88349184 60.7891306 211.91268826 66.38571835 C211.93104695 70.69318641 211.93075842 75.00050319 211.92505074 79.30800056 C211.92489748 81.3712458 211.93094546 83.43450127 211.94334221 85.49770927 C211.95824373 88.38452955 211.94758104 91.27018304 211.93043518 94.15696716 C211.94493713 95.43128098 211.94493713 95.43128098 211.95973206 96.7313385 C211.89343449 102.07034648 211.07086304 105.2195545 207.4287262 109.38768005 C203.11791565 112.74105868 199.11783118 112.81476408 193.85745239 112.77536011 C192.99578412 112.78074565 192.13411584 112.78613118 191.2463364 112.79167992 C188.35980337 112.80598436 185.47372731 112.79884963 182.58717346 112.79173279 C180.51737601 112.79743505 178.4475817 112.80439874 176.37779236 112.81253052 C170.7559188 112.83049283 165.13420106 112.82928775 159.51230741 112.82358813 C154.82031087 112.82050076 150.12834445 112.8265837 145.43635219 112.83262688 C134.36827371 112.84668056 123.30027239 112.84510375 112.23219299 112.83372498 C100.81059486 112.8222423 89.38923149 112.83632014 77.9676643 112.86312145 C68.16371237 112.88526631 58.3598342 112.89191857 48.55585903 112.88604504 C42.69938883 112.88267144 36.84306914 112.88511737 30.98661995 112.90229607 C25.47982925 112.91774371 19.97338679 112.91383368 14.46660995 112.89499092 C12.44536723 112.89129904 10.42409882 112.89443089 8.40287971 112.90487671 C5.64384448 112.91804719 2.88596881 112.90657412 0.12698364 112.8888855 C-1.07317002 112.90329301 -1.07317002 112.90329301 -2.29756922 112.91799158 C-7.50326491 112.84930895 -10.41715158 111.78757351 -14.5712738 108.38768005 C-18.25844828 104.03987098 -18.00405937 99.72168735 -17.97532654 94.28636169 C-17.98218979 93.37843369 -17.98905304 92.47050568 -17.99612427 91.5350647 C-18.01439871 88.53916201 -18.01055378 85.54378268 -18.00486755 82.5478363 C-18.00942907 80.46185129 -18.01473455 78.37586779 -18.02075195 76.28988647 C-18.02968436 71.91950879 -18.02725842 67.54931383 -18.01731873 63.17893982 C-18.00582951 57.58226918 -18.02603945 51.98622951 -18.05523586 46.38964176 C-18.07359455 42.08217369 -18.07330603 37.77485692 -18.06759834 33.46735954 C-18.06744509 31.4041143 -18.07349307 29.34085884 -18.08588982 27.27765083 C-18.10079134 24.39083056 -18.09012865 21.50517707 -18.07298279 18.61839294 C-18.08265076 17.7688504 -18.09231873 16.91930786 -18.10227966 16.04402161 C-18.0359821 10.70501363 -17.21341065 7.55580561 -13.5712738 3.38768005 C-9.26046326 0.03430143 -5.26037879 -0.03940397 0 0 Z " fill="#1064C1" transform="translate(17.571273803710938,-0.3876800537109375)"/>
<path d="M0 0 C3.66424958 2.04943154 7.17556674 4.35098703 10.67382812 6.66992188 C15.10780323 9.52858073 15.10780323 9.52858073 20.23828125 9.49609375 C22.86472575 8.07328152 25.3190953 6.61016301 27.75 4.875 C31.79425837 2 31.79425837 2 34 2 C34 2.66 34 3.32 34 4 C27.07 7.96 27.07 7.96 20 12 C18.52662353 19.63295615 18.52662353 19.63295615 20 27 C22.55610953 29.24641408 25.4373412 30.61509179 28.5 32.0625 C36.61561082 35.93672038 36.61561082 35.93672038 38.26953125 40.51171875 C38.32712368 45.52225996 37.86141339 50.28183505 35.3125 54.6875 C30.91912021 59.08087979 27.627359 60.34111294 21.53945923 60.3732605 C20.69716766 60.36247467 19.8548761 60.35168884 18.98706055 60.34057617 C17.63997261 60.34123329 17.63997261 60.34123329 16.26567078 60.34190369 C13.30579674 60.33981847 10.34649349 60.31649984 7.38671875 60.29296875 C5.33120534 60.28737185 3.27568792 60.2831022 1.22016907 60.28010559 C-4.18367609 60.26866424 -9.58727845 60.239203 -14.99102783 60.20599365 C-20.50765702 60.17527757 -26.02432553 60.16159695 -31.54101562 60.14648438 C-42.36078362 60.11433277 -53.1803716 60.06314485 -64 60 C-64.74372508 49.90367088 -64.74372508 49.90367088 -62.01904297 46.59301758 C-61.10268066 46.11501709 -60.18631836 45.6370166 -59.2421875 45.14453125 C-58.22970947 44.58967041 -57.21723145 44.03480957 -56.17407227 43.46313477 C-55.08537842 42.91842529 -53.99668457 42.37371582 -52.875 41.8125 C-51.23712524 40.91519165 -51.23712524 40.91519165 -49.56616211 39.99975586 C-44.89112183 37.45190565 -40.17863554 35.045873 -35.32421875 32.859375 C-31.83008365 31.22696146 -28.79478501 29.72946449 -26 27 C-24.56527972 21.82759517 -24.51584448 17.31187771 -25 12 C-26.07314453 11.60167969 -26.07314453 11.60167969 -27.16796875 11.1953125 C-30.06904319 9.97085901 -32.63015864 8.52016937 -35.3125 6.875 C-36.19550781 6.33617187 -37.07851562 5.79734375 -37.98828125 5.2421875 C-38.98408203 4.62730469 -38.98408203 4.62730469 -40 4 C-39.67 3.34 -39.34 2.68 -39 2 C-38.12859375 2.64710937 -37.2571875 3.29421875 -36.359375 3.9609375 C-32.78206861 6.425832 -29.22707854 8.84096234 -25 10 C-20.2399213 9.09838509 -16.88309391 6.81792011 -13 4 C-11.52781002 3.01037479 -10.04949286 2.02974021 -8.5625 1.0625 C-7.69818359 0.43021484 -7.69818359 0.43021484 -6.81640625 -0.21484375 C-4.07255729 -1.40089459 -2.84542758 -0.96696982 0 0 Z " fill="#BDDDFD" transform="translate(192,52)"/>
<path d="M0 0 C2.90025855 1.33479281 5.6616018 2.8065201 8.44287109 4.37451172 C9.52310547 4.98166016 10.60333984 5.58880859 11.71630859 6.21435547 C12.83521484 6.84728516 13.95412109 7.48021484 15.10693359 8.13232422 C16.21810547 8.75751953 17.32927734 9.38271484 18.47412109 10.02685547 C23.90435295 13.08459317 29.32588953 16.15702806 34.73193359 19.25732422 C30.88455519 23.60113855 26.34554725 27.47903907 20.73193359 29.25732422 C15.33179073 27.88879486 10.33747811 24.16824406 5.61474609 21.27099609 C1.66114985 18.92203334 1.66114985 18.92203334 -2.79150391 18.20654297 C-6.37625135 19.72751625 -9.60415814 21.6824856 -12.89306641 23.75732422 C-19.9279888 28.14396502 -19.9279888 28.14396502 -23.26806641 29.25732422 C-25.76808295 28.02623342 -28.08241233 26.75990267 -30.45556641 25.31982422 C-31.43686523 24.74071289 -31.43686523 24.74071289 -32.43798828 24.14990234 C-34.05341956 23.19479334 -35.66147165 22.22722356 -37.26806641 21.25732422 C-34.1745363 17.84766695 -30.97898746 15.78340189 -26.95556641 13.56982422 C-25.71380674 12.87868431 -24.47295391 12.18591311 -23.23291016 11.49169922 C-22.58821777 11.13140625 -21.94352539 10.77111328 -21.27929688 10.39990234 C-17.16107309 8.06034331 -13.11940384 5.59156868 -9.06762695 3.1394043 C-2.51160882 -0.82242347 -2.51160882 -0.82242347 0 0 Z " fill="#3B6ECF" transform="translate(190.26806640625,33.74267578125)"/>
<path d="M0 0 C6.56521603 2.08982853 12.96276157 4.12961016 18 9 C19.49243312 14.49138854 19.15439346 19.7676983 17.23828125 25.1328125 C15.23787176 28.49214996 12.43673754 30.31970439 9 32 C5.58666992 32.34057617 5.58666992 32.34057617 1.73046875 32.29296875 C1.04946609 32.28872391 0.36846344 32.28447906 -0.33317566 32.28010559 C-2.49336459 32.2634061 -4.65259642 32.22577312 -6.8125 32.1875 C-8.28318958 32.17244174 -9.75389389 32.15875534 -11.22460938 32.14648438 C-14.81671357 32.11353214 -18.40826326 32.06181173 -22 32 C-22.81306818 28.27327532 -23.28274607 25.66925039 -22 22 C-20.06640625 20.19140625 -20.06640625 20.19140625 -17.5625 18.5625 C-16.66660156 17.9746875 -15.77070313 17.386875 -14.84765625 16.78125 C-13.90792969 16.1934375 -12.96820313 15.605625 -12 15 C-11.07058594 14.4121875 -10.14117187 13.824375 -9.18359375 13.21875 C-2.34802476 9 -2.34802476 9 0 9 C0 6.03 0 3.06 0 0 Z " fill="#B9DBFE" transform="translate(211,80)"/>
<path d="M0 0 C0 2.97 0 5.94 0 9 C0.804375 9.20625 1.60875 9.4125 2.4375 9.625 C6.28085197 11.108399 9.17770151 13.06901536 12.54296875 15.40234375 C16.50466064 17.97838824 20.73180144 19.98619442 25 22 C25 22.33 25 22.66 25 23 C9.16 23 -6.68 23 -23 23 C-23 19.37 -23 15.74 -23 12 C-19.54459354 9.99479003 -16.08592199 7.99564852 -12.625 6 C-11.64015625 5.42765625 -10.6553125 4.8553125 -9.640625 4.265625 C-8.69960937 3.72421875 -7.75859375 3.1828125 -6.7890625 2.625 C-5.91975098 2.12226562 -5.05043945 1.61953125 -4.15478516 1.1015625 C-2 0 -2 0 0 0 Z " fill="#EDF3FE" transform="translate(151,89)"/>
<path d="M0 0 C0.19796547 2.3116276 0.38281807 4.6243794 0.5625 6.9375 C0.66691406 8.22527344 0.77132812 9.51304688 0.87890625 10.83984375 C0.92726544 12.22630672 0.96730841 13.61307915 1 15 C1.05067627 15.75289307 1.10135254 16.50578613 1.15356445 17.28149414 C1.14789904 19.83659686 0.95612391 21.62260348 0 24 C-2.96893423 26.82900727 -6.3311679 28.64888537 -9.9375 30.5625 C-10.87013672 31.09423828 -11.80277344 31.62597656 -12.76367188 32.17382812 C-19.57396236 36 -19.57396236 36 -22 36 C-24.05816324 15.28684003 -24.05816324 15.28684003 -20.83691406 10.14257812 C-17.45531726 7.00776452 -13.27302774 5.53390739 -9 4 C-7.58449152 3.20054338 -6.18281132 2.3746668 -4.8125 1.5 C-2 0 -2 0 0 0 Z " fill="#52BBFC" transform="translate(211,65)"/>
<path d="M0 0 C4.25053579 1.39751586 7.86775474 3.68334022 11.67578125 6.00390625 C12.46404297 6.47634766 13.25230469 6.94878906 14.06445312 7.43554688 C16.00140733 8.5977194 17.9340642 9.76645042 19.86328125 10.94140625 C18.28917195 15.66373414 14.32305312 16.87013017 10.11328125 19.19140625 C9.30117187 19.66320312 8.4890625 20.135 7.65234375 20.62109375 C6.86085937 21.06195313 6.069375 21.5028125 5.25390625 21.95703125 C4.53235352 22.36211914 3.81080078 22.76720703 3.06738281 23.18457031 C-0.4542812 24.39382579 -2.97792313 23.48577565 -6.26489258 21.94165039 C-8.49774643 20.6365519 -10.7291721 19.33072374 -12.94921875 18.00390625 C-13.73748047 17.54822266 -14.52574219 17.09253906 -15.33789062 16.62304688 C-16.08232422 16.18283203 -16.82675781 15.74261719 -17.59375 15.2890625 C-18.2741333 14.88695557 -18.9545166 14.48484863 -19.65551758 14.07055664 C-20.14431396 13.69793701 -20.63311035 13.32531738 -21.13671875 12.94140625 C-21.13671875 12.28140625 -21.13671875 11.62140625 -21.13671875 10.94140625 C-20.01652344 10.31492187 -18.89632812 9.6884375 -17.7421875 9.04296875 C-16.26949588 8.21751102 -14.79684157 7.39198671 -13.32421875 6.56640625 C-12.58623047 6.15390625 -11.84824219 5.74140625 -11.08789062 5.31640625 C-10.37568359 4.91679688 -9.66347656 4.5171875 -8.9296875 4.10546875 C-8.27508545 3.7388916 -7.6204834 3.37231445 -6.94604492 2.99462891 C-1.72053419 -0.04718101 -1.72053419 -0.04718101 0 0 Z " fill="#A2DDFD" transform="translate(189.13671875,51.05859375)"/>
<path d="M0 0 C3.25885 1.30354 6.00042816 2.4636583 8.98828125 4.1640625 C9.62548096 4.5245166 10.26268066 4.8849707 10.91918945 5.25634766 C11.70898193 5.70800293 12.49877441 6.1596582 13.3125 6.625 C15.849375 8.06875 18.38625 9.5125 21 11 C21 19.25 21 27.5 21 36 C18.834375 34.9275 16.66875 33.855 14.4375 32.75 C13.77032959 32.4209668 13.10315918 32.09193359 12.41577148 31.75292969 C11.86477783 31.47868164 11.31378418 31.20443359 10.74609375 30.921875 C10.19622803 30.64956055 9.6463623 30.37724609 9.07983398 30.09667969 C6.00967528 28.47780976 3.01351852 26.72201058 0 25 C0 16.75 0 8.5 0 0 Z " fill="#45B8FD" transform="translate(167,65)"/>
<path d="M0 0 C4.455 2.97 4.455 2.97 9 6 C11.32004042 7.35633132 13.64841667 8.69912412 16 10 C16.79939749 15.24732714 17.14811096 19.78083503 16 25 C11.70423487 29.2777157 6.24559495 33 0 33 C0 22.11 0 11.22 0 0 Z " fill="#0C64D7" transform="translate(151,54)"/>
<path d="M0 0 C0.66 0 1.32 0 2 0 C2 0.66 2 1.32 2 2 C3.258125 2 4.51625 2 5.8125 2 C10.02467546 2 13.86367349 2.10565913 18 3 C18 2.01 18 1.02 18 0 C18.66 0 19.32 0 20 0 C20.33 0.66 20.66 1.32 21 2 C21.66 2.33 22.32 2.66 23 3 C23 4.66666667 23 6.33333333 23 8 C23.99 8 24.98 8 26 8 C26 5.36 26 2.72 26 0 C29 1 29 1 30 3 C30.33 2.01 30.66 1.02 31 0 C31.66 0 32.32 0 33 0 C33.495 1.485 33.495 1.485 34 3 C35.32 2.67 36.64 2.34 38 2 C38.38218767 3.65614657 38.71395102 5.32457024 39 7 C38.67 7.33 38.34 7.66 38 8 C41.3 8.33 44.6 8.66 48 9 C47.67 9.66 47.34 10.32 47 11 C28.85 11 10.7 11 -8 11 C-8 10.34 -8 9.68 -8 9 C-5.69 8.34 -3.38 7.68 -1 7 C-0.67 4.69 -0.34 2.38 0 0 Z " fill="#4D8DD1" transform="translate(22,78)"/>
<path d="M0 0 C0 10.23 0 20.46 0 31 C-3.49353625 29.6025855 -6.5107484 28.25822028 -9.75 26.4375 C-10.52859375 26.00308594 -11.3071875 25.56867188 -12.109375 25.12109375 C-14 24 -14 24 -15 23 C-15.949875 17.69541635 -16.21275892 13.22337393 -15 8 C-11.22491511 4.29791399 -5.53197771 0 0 0 Z " fill="#0D5ED5" transform="translate(226,56)"/>
<path d="M0 0 C0.99 0 1.98 0 3 0 C3.68828314 13.95685258 3.68828314 13.95685258 1.3125 17.6875 C-2.47424804 21.47424804 -5.25422628 23.17365977 -10.64453125 23.29296875 C-12.36743239 23.27316529 -14.09021326 23.23758888 -15.8125 23.1875 C-17.13797852 23.16719727 -17.13797852 23.16719727 -18.49023438 23.14648438 C-20.66042023 23.11129217 -22.83029033 23.05748985 -25 23 C-22.0696842 20.40253955 -19.1300537 18.47397471 -15.64453125 16.73828125 C-14.85755859 16.34060547 -14.07058594 15.94292969 -13.25976562 15.53320312 C-11.62654607 14.71854852 -9.9830409 13.92420089 -8.33007812 13.15039062 C-3.73879945 10.83555326 -3.73879945 10.83555326 -1.00537109 6.66162109 C-0.50678998 4.4261042 -0.16357133 2.28280523 0 0 Z " fill="#EEF4FE" transform="translate(226,89)"/>
<path d="M0 0 C4.3992796 0.58765887 7.51891411 2.23959717 11.3125 4.5 C12.38113281 5.1290625 13.44976562 5.758125 14.55078125 6.40625 C15.35902344 6.9321875 16.16726562 7.458125 17 8 C17 8.33 17 8.66 17 9 C11.39 9 5.78 9 0 9 C0 6.03 0 3.06 0 0 Z " fill="#F8F9FF" transform="translate(128,103)"/>
<path d="M0 0 C3 1 3 1 4 3 C4.33 2.01 4.66 1.02 5 0 C5.66 0 6.32 0 7 0 C7.33 0.99 7.66 1.98 8 3 C9.32 2.67 10.64 2.34 12 2 C12.33 3.65 12.66 5.3 13 7 C8.8369263 8.58593284 5.46074638 9.31121486 1 9 C0 8 0 8 -0.09765625 6.15234375 C-0.06510417 4.1015625 -0.03255208 2.05078125 0 0 Z " fill="#1F69C5" transform="translate(48,78)"/>
<path d="M0 0 C0.66 0 1.32 0 2 0 C2 0.66 2 1.32 2 2 C4.64 2 7.28 2 10 2 C10.33 2.99 10.66 3.98 11 5 C10.01 5.495 10.01 5.495 9 6 C9.66 6.33 10.32 6.66 11 7 C10.67 7.66 10.34 8.32 10 9 C6.04 9 2.08 9 -2 9 C-1.34 6.03 -0.68 3.06 0 0 Z " fill="#5C9ED7" transform="translate(22,78)"/>
<path d="M0 0 C0.969375 0.185625 1.93875 0.37125 2.9375 0.5625 C3.948125 0.706875 4.95875 0.85125 6 1 C6.33 0.67 6.66 0.34 7 0 C8.66617115 -0.04063832 10.33388095 -0.042721 12 0 C12 2.31 12 4.62 12 7 C8.30458414 7.95024979 5.69541586 7.95024979 2 7 C2 5.02 2 3.04 2 1 C1.34 0.67 0.68 0.34 0 0 Z " fill="#BED1ED" transform="translate(111,30)"/>
<path d="M0 0 C0.66 0 1.32 0 2 0 C2 1.98 2 3.96 2 6 C2.66 5.67 3.32 5.34 4 5 C4.65555119 2.47266765 4.65555119 2.47266765 5 0 C7.64 0 10.28 0 13 0 C12.34 0.66 11.68 1.32 11 2 C10.35232207 4.57061311 10.35232207 4.57061311 10 7 C6.30458414 7.95024979 3.69541586 7.95024979 0 7 C0 4.69 0 2.38 0 0 Z " fill="#AED3EC" transform="translate(32,50)"/>
<path d="M0 0 C1.4540625 0.0309375 1.4540625 0.0309375 2.9375 0.0625 C2.9375 3.3625 2.9375 6.6625 2.9375 10.0625 C0.9575 10.0625 -1.0225 10.0625 -3.0625 10.0625 C-2.7325 9.4025 -2.4025 8.7425 -2.0625 8.0625 C-1.0725 8.3925 -0.0825 8.7225 0.9375 9.0625 C0.9375 8.4025 0.9375 7.7425 0.9375 7.0625 C-0.7125 6.7325 -2.3625 6.4025 -4.0625 6.0625 C-4.105221 4.39638095 -4.10313832 2.72867115 -4.0625 1.0625 C-3.0625 0.0625 -3.0625 0.0625 0 0 Z " fill="#B1C6E9" transform="translate(138.0625,29.9375)"/>
<path d="M0 0 C0.66 0 1.32 0 2 0 C2 0.66 2 1.32 2 2 C2.99 1.34 3.98 0.68 5 0 C5.99 0.33 6.98 0.66 8 1 C8 1.99 8 2.98 8 4 C7.34 4 6.68 4 6 4 C6 6.31 6 8.62 6 11 C5.34 11 4.68 11 4 11 C4 9.02 4 7.04 4 5 C3.34 5 2.68 5 2 5 C2 6.65 2 8.3 2 10 C1.34 10 0.68 10 0 10 C0 6.7 0 3.4 0 0 Z " fill="#9EC5E7" transform="translate(54,47)"/>
<path d="M0 0 C3 1 3 1 5 4 C5.33 2.68 5.66 1.36 6 0 C6.66 0 7.32 0 8 0 C8 3.3 8 6.6 8 10 C5 9 5 9 3 6 C2.67 7.32 2.34 8.64 2 10 C1.34 10 0.68 10 0 10 C0 6.7 0 3.4 0 0 Z " fill="#E6F3F9" transform="translate(15,27)"/>
<path d="M0 0 C0.99 0 1.98 0 3 0 C5.42857143 6.28571429 5.42857143 6.28571429 4 10 C1.525 9.01 1.525 9.01 -1 8 C-1 8.66 -1 9.32 -1 10 C-1.66 10 -2.32 10 -3 10 C-2.49287967 6.28111761 -1.88391785 3.26545761 0 0 Z " fill="#C5DFF0" transform="translate(53,27)"/>
<path d="M0 0 C2.5 0.125 2.5 0.125 3.5 1.125 C3.6875 3.5625 3.6875 3.5625 3.5 6.125 C2.84 6.785 2.18 7.445 1.5 8.125 C-2.03571429 7.58928571 -2.03571429 7.58928571 -3.5 6.125 C-3.625 3.625 -3.625 3.625 -3.5 1.125 C-2.5 0.125 -2.5 0.125 0 0 Z " fill="#A1CEE9" transform="translate(26.5,49.875)"/>
<path d="M0 0 C0.66 0 1.32 0 2 0 C2.33 0.66 2.66 1.32 3 2 C3.33 1.34 3.66 0.68 4 0 C4.66 0 5.32 0 6 0 C6.33 0.66 6.66 1.32 7 2 C7.33 1.34 7.66 0.68 8 0 C8.66 0 9.32 0 10 0 C9.67 2.31 9.34 4.62 9 7 C8.01 7 7.02 7 6 7 C6 6.01 6 5.02 6 4 C5.34 4 4.68 4 4 4 C4 4.99 4 5.98 4 7 C3.01 7 2.02 7 1 7 C0.67 4.69 0.34 2.38 0 0 Z " fill="#D6EAF5" transform="translate(34,30)"/>
<path d="M0 0 C1.2065625 0.0309375 1.2065625 0.0309375 2.4375 0.0625 C2.7675 1.3825 3.0975 2.7025 3.4375 4.0625 C1.7875 4.0625 0.1375 4.0625 -1.5625 4.0625 C-1.5625 4.7225 -1.5625 5.3825 -1.5625 6.0625 C0.0875 5.7325 1.7375 5.4025 3.4375 5.0625 C3.1075 6.0525 2.7775 7.0425 2.4375 8.0625 C-2.4375 7.1875 -2.4375 7.1875 -3.5625 6.0625 C-3.6875 3.5625 -3.6875 3.5625 -3.5625 1.0625 C-2.5625 0.0625 -2.5625 0.0625 0 0 Z " fill="#C0D7EF" transform="translate(66.5625,49.9375)"/>
<path d="M0 0 C1.65 0 3.3 0 5 0 C5.33 1.32 5.66 2.64 6 4 C4.35 4 2.7 4 1 4 C1 4.66 1 5.32 1 6 C2.65 5.67 4.3 5.34 6 5 C5.67 5.99 5.34 6.98 5 8 C3.35 7.67 1.7 7.34 0 7 C-1.125 2.25 -1.125 2.25 0 0 Z " fill="#BADEEF" transform="translate(26,30)"/>
<path d="M0 0 C2.625 0.375 2.625 0.375 5 1 C5 1.99 5 2.98 5 4 C3.35 4 1.7 4 0 4 C0 4.66 0 5.32 0 6 C1.65 5.67 3.3 5.34 5 5 C5 5.66 5 6.32 5 7 C3.02 7 1.04 7 -1 7 C-1.625 4.625 -1.625 4.625 -2 2 C-1.34 1.34 -0.68 0.68 0 0 Z " fill="#C8D7F0" transform="translate(145,30)"/>
<path d="M0 0 C1.65 0 3.3 0 5 0 C5 2.31 5 4.62 5 7 C3.35 7.33 1.7 7.66 0 8 C-0.33 6.68 -0.66 5.36 -1 4 C0.32 3.67 1.64 3.34 3 3 C3 2.34 3 1.68 3 1 C1.68 1.33 0.36 1.66 -1 2 C-0.67 1.34 -0.34 0.68 0 0 Z " fill="#C7DBF0" transform="translate(85,30)"/>
<path d="M0 0 C0.99 0.495 0.99 0.495 2 1 C2 1.66 2 2.32 2 3 C2.66 3 3.32 3 4 3 C4 2.01 4 1.02 4 0 C4.66 0 5.32 0 6 0 C5.34 2.97 4.68 5.94 4 9 C2.68 9.33 1.36 9.66 0 10 C0.185625 9.46375 0.37125 8.9275 0.5625 8.375 C1.11419324 5.38009386 0.60597444 2.96254171 0 0 Z " fill="#D1E8F4" transform="translate(15,50)"/>
<path d="M0 0 C1.67542976 0.28604898 3.34385343 0.61781233 5 1 C5 1.99 5 2.98 5 4 C3.68 4.33 2.36 4.66 1 5 C2.32 5 3.64 5 5 5 C5 5.66 5 6.32 5 7 C3.02 7 1.04 7 -1 7 C-1.04254356 5.00045254 -1.04080783 2.99958364 -1 1 C-0.67 0.67 -0.34 0.34 0 0 Z " fill="#CDDCF1" transform="translate(99,50)"/>
<path d="M0 0 C3.3 0.33 6.6 0.66 10 1 C10 1.66 10 2.32 10 3 C9.01 3.33 8.02 3.66 7 4 C6.67 4.99 6.34 5.98 6 7 C4.68 7 3.36 7 2 7 C2 5.02 2 3.04 2 1 C1.34 0.67 0.68 0.34 0 0 Z " fill="#78A1DB" transform="translate(111,30)"/>
<path d="M0 0 C0.66 0 1.32 0 2 0 C2.66 0.99 3.32 1.98 4 3 C4.33 2.01 4.66 1.02 5 0 C5.66 0 6.32 0 7 0 C6.01 3.3 5.02 6.6 4 10 C3.01 9.67 2.02 9.34 1 9 C1.33 8.34 1.66 7.68 2 7 C1.39239518 4.6505947 0.72870472 2.31470912 0 0 Z " fill="#DEE8F6" transform="translate(85,50)"/>
<path d="M0 0 C0.78375 0.185625 1.5675 0.37125 2.375 0.5625 C4.97089775 1.25962266 4.97089775 1.25962266 7 0 C6.67 1.98 6.34 3.96 6 6 C4.35 6 2.7 6 1 6 C0.67 4.02 0.34 2.04 0 0 Z " fill="#B3CAEB" transform="translate(62,80)"/>
<path d="M0 0 C1.98 0.495 1.98 0.495 4 1 C3.67 2.65 3.34 4.3 3 6 C1.68 5.67 0.36 5.34 -1 5 C-0.67 3.35 -0.34 1.7 0 0 Z " fill="#9BBBE5" transform="translate(57,80)"/>
<path d="M0 0 C0.66 0 1.32 0 2 0 C2 3.3 2 6.6 2 10 C1.01 9.67 0.02 9.34 -1 9 C-1.6875 6.9375 -1.6875 6.9375 -2 5 C-1.34 5 -0.68 5 0 5 C0 3.35 0 1.7 0 0 Z " fill="#CDE8F4" transform="translate(21,27)"/>
<path d="M0 0 C0.99 0.495 0.99 0.495 2 1 C2 1.66 2 2.32 2 3 C2.66 3 3.32 3 4 3 C4 2.01 4 1.02 4 0 C4.66 0 5.32 0 6 0 C5.67 1.98 5.34 3.96 5 6 C3.68 6 2.36 6 1 6 C0.67 4.02 0.34 2.04 0 0 Z " fill="#D4E5F4" transform="translate(76,30)"/>
<path d="M0 0 C1.98 0 3.96 0 6 0 C6 1.65 6 3.3 6 5 C5.67 4.34 5.34 3.68 5 3 C3.35 3.33 1.7 3.66 0 4 C0 2.68 0 1.36 0 0 Z M3 5 C3.99 5.495 3.99 5.495 5 6 C4.01 6.495 4.01 6.495 3 7 C3 6.34 3 5.68 3 5 Z " fill="#1279C5" transform="translate(16,80)"/>
<path d="M0 0 C2.5 1.375 2.5 1.375 5 3 C5 3.66 5 4.32 5 5 C3.68 4.67 2.36 4.34 1 4 C0.67 4.66 0.34 5.32 0 6 C0 5.34 0 4.68 0 4 C-1.98 4.33 -3.96 4.66 -6 5 C-6 4.34 -6 3.68 -6 3 C-4.35 3 -2.7 3 -1 3 C-0.67 2.01 -0.34 1.02 0 0 Z " fill="#2B76C8" transform="translate(71,51)"/>
<path d="M0 0 C1.65 0 3.3 0 5 0 C5 1.65 5 3.3 5 5 C3.35 5 1.7 5 0 5 C0 3.35 0 1.7 0 0 Z " fill="#3678CB" transform="translate(102,31)"/>
<path d="M0 0 C0.78375 0.33 1.5675 0.66 2.375 1 C4.84332497 2.11866511 4.84332497 2.11866511 7 2 C7 2.66 7 3.32 7 4 C6.01 4.33 5.02 4.66 4 5 C3.34 5.66 2.68 6.32 2 7 C1.34 6.67 0.68 6.34 0 6 C0 4.02 0 2.04 0 0 Z " fill="#307FCA" transform="translate(81,29)"/>
<path d="M0 0 C0.66 0 1.32 0 2 0 C2.33 0.66 2.66 1.32 3 2 C3.66 2.33 4.32 2.66 5 3 C4.34 4.32 3.68 5.64 3 7 C2.01 7 1.02 7 0 7 C0 4.69 0 2.38 0 0 Z " fill="#B1CEEB" transform="translate(40,78)"/>
<path d="M0 0 C0.66 0 1.32 0 2 0 C2 0.66 2 1.32 2 2 C2.66 2.33 3.32 2.66 4 3 C3.34 3 2.68 3 2 3 C2.33 4.98 2.66 6.96 3 9 C2.01 8.67 1.02 8.34 0 8 C-1.125 2.25 -1.125 2.25 0 0 Z " fill="#DBE7F5" transform="translate(80,48)"/>
<path d="M0 0 C0.66 0 1.32 0 2 0 C2 2.64 2 5.28 2 8 C1.34 8 0.68 8 0 8 C-1.125 5.6875 -1.125 5.6875 -2 3 C-1.34 2.01 -0.68 1.02 0 0 Z " fill="#A5C3E7" transform="translate(53,78)"/>
<path d="M0 0 C2.0625 0.4375 2.0625 0.4375 4 1 C3.01 1.33 2.02 1.66 1 2 C1.83333333 4.16666667 1.83333333 4.16666667 4 5 C2.68 5.33 1.36 5.66 0 6 C-0.38218767 4.34385343 -0.71395102 2.67542976 -1 1 C-0.67 0.67 -0.34 0.34 0 0 Z " fill="#A7C9E9" transform="translate(35,80)"/>
<path d="M0 0 C0.66 0 1.32 0 2 0 C2 0.66 2 1.32 2 2 C2.99 2.33 3.98 2.66 5 3 C4.67 4.32 4.34 5.64 4 7 C3.34 6.01 2.68 5.02 2 4 C1.34 5.32 0.68 6.64 0 8 C0 5.36 0 2.72 0 0 Z " fill="#BCD8EE" transform="translate(22,78)"/>
<path d="M0 0 C0.99 0.33 1.98 0.66 3 1 C2.67 3.31 2.34 5.62 2 8 C1.34 8 0.68 8 0 8 C0 5.36 0 2.72 0 0 Z " fill="#A6C5E8" transform="translate(48,78)"/>
<path d="M0 0 C0.99 0.33 1.98 0.66 3 1 C3 1.99 3 2.98 3 4 C2.34 4 1.68 4 1 4 C1 5.98 1 7.96 1 10 C0.67 10 0.34 10 0 10 C0 8.02 0 6.04 0 4 C-0.66 3.67 -1.32 3.34 -2 3 C-1.34 3 -0.68 3 0 3 C0 2.01 0 1.02 0 0 Z " fill="#EDF4FA" transform="translate(59,47)"/>
<path d="M0 0 C1.65 0 3.3 0 5 0 C4.34 0.66 3.68 1.32 3 2 C2.35232207 4.57061311 2.35232207 4.57061311 2 7 C1.34 7 0.68 7 0 7 C0 4.69 0 2.38 0 0 Z " fill="#D9EAF5" transform="translate(60,30)"/>
<path d="M0 0 C1.98 0.99 1.98 0.99 4 2 C3.67 3.65 3.34 5.3 3 7 C2.01 7 1.02 7 0 7 C0 4.69 0 2.38 0 0 Z " fill="#2C95CF" transform="translate(20,49)"/>
<path d="M0 0 C1.32 0.33 2.64 0.66 4 1 C3.34 2.98 2.68 4.96 2 7 C1.34 7 0.68 7 0 7 C0 4.69 0 2.38 0 0 Z " fill="#E9F2F9" transform="translate(66,30)"/>
</svg>
