<?xml version="1.0" encoding="UTF-8"?>
<svg version="1.1" xmlns="http://www.w3.org/2000/svg" width="156" height="195">
<path d="M0 0 C1.65 0.33 3.3 0.66 5 1 C6.8125 4.5625 6.8125 4.5625 8 8 C8.33 5.36 8.66 2.72 9 0 C10.45792884 -0.05399736 11.91642712 -0.09279177 13.375 -0.125 C14.18710938 -0.14820312 14.99921875 -0.17140625 15.8359375 -0.1953125 C18 0 18 0 20 2 C20.20872719 4.78302919 20.25640898 6.48718205 19 9 C19.66 9.33 20.32 9.66 21 10 C21.99 7.03 22.98 4.06 24 1 C25.65 0.67 27.3 0.34 29 0 C30.32 2.97 31.64 5.94 33 9 C33.33 6.03 33.66 3.06 34 0 C37.83736322 0.95934081 38.59660228 1.23609263 41 4 C41.33 2.68 41.66 1.36 42 0 C42.99 0 43.98 0 45 0 C45 3.96 45 7.92 45 12 C41.16263678 11.04065919 40.40339772 10.76390737 38 8 C37.67 9.32 37.34 10.64 37 12 C32.17639811 12.19294408 28.50353262 11.75747614 24 10 C24 10.66 24 11.32 24 12 C21.36 12 18.72 12 16 12 C15.67 11.01 15.34 10.02 15 9 C14.34 9 13.68 9 13 9 C13 9.99 13 10.98 13 12 C10.36 12 7.72 12 5 12 C5 11.34 5 10.68 5 10 C4.0925 10.350625 3.185 10.70125 2.25 11.0625 C-1 12 -1 12 -5 11 C-3.35 7.37 -1.7 3.74 0 0 Z M13 3 C13 3.99 13 4.98 13 6 C14.32 5.67 15.64 5.34 17 5 C16.67 4.34 16.34 3.68 16 3 C15.01 3 14.02 3 13 3 Z M2 5 C1.67 5.66 1.34 6.32 1 7 C1.66 7 2.32 7 3 7 C2.67 6.34 2.34 5.68 2 5 Z M26 5 C26 5.66 26 6.32 26 7 C26.66 6.67 27.32 6.34 28 6 C27.34 5.67 26.68 5.34 26 5 Z " fill="#0A5EBE" transform="translate(98,115)"/>
<path d="M0 0 C3.60486143 1.09238225 5.76648655 2.62926267 8.4375 5.1875 C10.88499372 7.32905701 11.61467544 7.95900803 14.9375 8.3125 C19.38824018 6.40503992 22.55403632 3.34975657 26 0 C27.32 0.66 28.64 1.32 30 2 C29.63189279 5.19026248 28.78299922 6.23925728 26.5625 8.6875 C23.72712385 11.87322436 23.09931107 14.89675922 22.45703125 19.046875 C22 21 22 21 20 23 C17.25 23.30078125 17.25 23.30078125 14 23.3125 C12.9275 23.32925781 11.855 23.34601563 10.75 23.36328125 C9.8425 23.24339844 8.935 23.12351562 8 23 C6 20 6 20 5.25 16.25 C4.29738706 11.96717819 2.25840222 9.6451094 -0.85546875 6.640625 C-2 5 -2 5 -1.73828125 2.859375 C-1 1 -1 1 0 0 Z " fill="#0A63C0" transform="translate(64,83)"/>
<path d="M0 0 C5.24883751 1.81690529 7.90424948 4.53847719 11 9 C11 10.32 11 11.64 11 13 C5.8328841 14.72237197 0.89400242 14.65561622 -4.25 12.875 C-7.70025375 10.52255426 -9.66002179 8.4745131 -12 5 C-11.9375 2.6875 -11.9375 2.6875 -11 1 C-7.53909109 -0.73045446 -3.79089112 -0.34579074 0 0 Z " fill="#0A5FBF" transform="translate(105,91)"/>
<path d="M0 0 C5.22713647 1.80939339 7.97261317 4.50478925 11 9 C10.9375 11.3125 10.9375 11.3125 10 13 C6.53909109 14.73045446 2.79089112 14.34579074 -1 14 C-6.22713647 12.19060661 -8.97261317 9.49521075 -12 5 C-11.9375 2.6875 -11.9375 2.6875 -11 1 C-7.53909109 -0.73045446 -3.79089112 -0.34579074 0 0 Z " fill="#0A73C3" transform="translate(52,69)"/>
<path d="M0 0 C1.6875 0.9375 1.6875 0.9375 2.6875 2.9375 C3.23110446 7.89232094 3.25187074 11.80875852 1 16.3125 C-1.31273604 18.93776793 -3.34074315 21.08015197 -6.3125 22.9375 C-8.5625 22.8125 -8.5625 22.8125 -10.3125 21.9375 C-12.04295446 18.47659109 -11.65829074 14.72839112 -11.3125 10.9375 C-9.62394798 6.05946084 -5.8159591 -0.15718808 0 0 Z " fill="#0A80C5" transform="translate(93.3125,49.0625)"/>
<path d="M0 0 C2.86009035 0.0841203 4.54648827 0.56818739 6.6328125 2.5546875 C10.27048737 6.78985486 12.14170987 9.2477896 12.125 14.9375 C12.12757812 15.81277344 12.13015625 16.68804687 12.1328125 17.58984375 C12 20 12 20 11 23 C7.84113505 22.92478893 5.69915712 22.62522327 3.30078125 20.48046875 C-0.85198297 15.70428715 -2.22794568 12.45490124 -2.16796875 5.94140625 C-1.96569543 3.60350299 -1.29922669 1.94884004 0 0 Z " fill="#0A80C5" transform="translate(62,49)"/>
<path d="M0 0 C0.99 0.66 1.98 1.32 3 2 C2.91651691 4.83842501 2.4276272 6.54049314 0.48046875 8.6328125 C-3.74407573 12.31483653 -6.76949154 14.13974576 -12.5 14.1875 C-13.66015625 14.20876953 -13.66015625 14.20876953 -14.84375 14.23046875 C-17 14 -17 14 -20 12 C-19.4971962 7.64236704 -16.94698863 5.08094266 -14 2 C-9.80247922 -0.56515159 -4.80267384 -0.61157644 0 0 Z " fill="#0B60BF" transform="translate(60,91)"/>
<path d="M0 0 C0.7734375 -0.01417969 1.546875 -0.02835937 2.34375 -0.04296875 C4.5 0.1875 4.5 0.1875 7.5 2.1875 C7.41651691 5.02592501 6.9276272 6.72799314 4.98046875 8.8203125 C0.75592427 12.50233653 -2.26949154 14.32724576 -8 14.375 C-9.16015625 14.39626953 -9.16015625 14.39626953 -10.34375 14.41796875 C-12.5 14.1875 -12.5 14.1875 -15.5 12.1875 C-14.17771571 6.50167757 -12.09744698 4.4713907 -7.5 1.1875 C-4.71398777 0.25882926 -2.88933911 0.02407783 0 0 Z " fill="#0A73C2" transform="translate(108.5,68.8125)"/>
<path d="M0 0 C1.32 0 2.64 0 4 0 C4.33 0.99 4.66 1.98 5 3 C5.33 2.505 5.66 2.01 6 1.5 C8.71511184 -0.53633388 10.79181138 -0.53553496 14.125 -0.4375 C16 0 16 0 18 2.5 C18.33 3.325 18.66 4.15 19 5 C19.598125 4.175 20.19625 3.35 20.8125 2.5 C21.8953125 1.2625 21.8953125 1.2625 23 0 C23.99 0 24.98 0 26 0 C26 3.96 26 7.92 26 12 C25.01 12 24.02 12 23 12 C22.67 11.01 22.34 10.02 22 9 C21.67 9.66 21.34 10.32 21 11 C19.68 10.67 18.36 10.34 17 10 C16.67 10.66 16.34 11.32 16 12 C8.61538462 12.36923077 8.61538462 12.36923077 5.5 10.5 C5.005 10.005 4.51 9.51 4 9 C4 9.99 4 10.98 4 12 C2.68 12 1.36 12 0 12 C0 8.04 0 4.08 0 0 Z M11 1 C9.9739266 2.31337396 8.97272675 3.64664105 8 5 C9.15173355 7.46800047 10.04783565 9.04783565 12 11 C12 7.7 12 4.4 12 1 C11.67 1 11.34 1 11 1 Z " fill="#0B5CBF" transform="translate(72,133)"/>
<path d="M0 0 C3.77556505 -0.35957762 5.76995408 -0.11727831 9.1875 1.625 C12.30600842 4.25840711 13.59896293 6.18606575 15 10 C15.1875 12.875 15.1875 12.875 15 15 C9.35663672 14.6173991 6.10084774 14.22146091 2 10 C-0.28871935 6.73040093 -0.17819397 3.92026737 0 0 Z " fill="#0A7EC4" transform="translate(45,54)"/>
<path d="M0 0 C1.2375 0.7425 1.2375 0.7425 2.5 1.5 C2.5 2.82 2.5 4.14 2.5 5.5 C-1.07440582 8.72849558 -4.65318791 9.00243864 -9.2734375 8.87109375 C-12.784521 8.28591317 -14.77278096 6.73771818 -17.5 4.5 C-16.58486681 2.21216703 -15.84515354 0.76550272 -13.875 -0.75 C-8.79646078 -2.35374923 -4.78603353 -2.05115723 0 0 Z " fill="#0A69C2" transform="translate(121.5,83.5)"/>
<path d="M0 0 C0.35957762 3.77556505 0.11727831 5.76995408 -1.625 9.1875 C-4.2631865 12.31166823 -6.1477566 13.66350739 -10 15 C-12.875 14.6875 -12.875 14.6875 -15 14 C-14.58675744 8.7311573 -13.77055562 5.77055562 -10 2 C-6.73040093 -0.28871935 -3.92026737 -0.17819397 0 0 Z " fill="#0A7FC4" transform="translate(111,54)"/>
<path d="M0 0 C2.29949654 1.12300994 3.9825011 2.38600088 6 4 C5.08486681 6.28783297 4.34515354 7.73449728 2.375 9.25 C-2.38306101 10.75254558 -6.47311907 10.63620039 -11 8.75 C-11.66 8.1725 -12.32 7.595 -13 7 C-13 5.68 -13 4.36 -13 3 C-9.17601128 -0.34599013 -4.89883608 -0.90719187 0 0 Z " fill="#0B6AC1" transform="translate(46,82)"/>
<path d="M0 0 C3.16115776 1.36983503 3.9927092 1.9890638 6 5 C6.75287187 9.59602013 6.63754167 13.63424645 4 17.5625 C3.34 18.366875 2.68 19.17125 2 20 C-0.69600373 19.0114653 -1.80558649 18.34022364 -3.25 15.8125 C-4.18463797 12.30760763 -4.38092549 9.61879216 -4 6 C-2 2.5625 -2 2.5625 0 0 Z " fill="#0B85C5" transform="translate(77,41)"/>
<path d="M0 0 C6.6 0 13.2 0 20 0 C20 0.99 20 1.98 20 3 C18.68 3 17.36 3 16 3 C16 5.97 16 8.94 16 12 C15.01 12 14.02 12 13 12 C13 9.03 13 6.06 13 3 C9.7 3 6.4 3 3 3 C3 3.66 3 4.32 3 5 C4.98 5 6.96 5 9 5 C9 5.99 9 6.98 9 8 C7.02 8 5.04 8 3 8 C3 9.32 3 10.64 3 12 C2.01 12 1.02 12 0 12 C0 8.04 0 4.08 0 0 Z " fill="#0A5DBE" transform="translate(75,115)"/>
<path d="M0 0 C2.9375 0.75 2.9375 0.75 4.9375 2.75 C5.3125 5.6875 5.3125 5.6875 4.9375 8.75 C3.3125 10.6875 3.3125 10.6875 0.9375 11.75 C-2.1875 11.625 -2.1875 11.625 -5.0625 10.75 C-7.0625 7.75 -7.0625 7.75 -6.875 4.6875 C-5.723712 0.52515108 -4.27834222 -0.34925243 0 0 Z " fill="#0A6DC2" transform="translate(79.0625,78.25)"/>
<path d="M0 0 C4 1 4 1 6 3 C6.33 2.01 6.66 1.02 7 0 C8.32 0 9.64 0 11 0 C11 3.96 11 7.92 11 12 C9.35 11.67 7.7 11.34 6 11 C5.34 10.01 4.68 9.02 4 8 C3.67 9.32 3.34 10.64 3 12 C2.01 12 1.02 12 0 12 C0 8.04 0 4.08 0 0 Z " fill="#0A5DBF" transform="translate(36,115)"/>
<path d="M0 0 C1.423125 -0.061875 2.84625 -0.12375 4.3125 -0.1875 C5.51326172 -0.23970703 5.51326172 -0.23970703 6.73828125 -0.29296875 C9 0 9 0 10.7734375 1.2890625 C12.78316905 4.092446 12.30214868 6.67636457 12 10 C10 12 10 12 7.6171875 12.1953125 C6.71226563 12.17210938 5.80734375 12.14890625 4.875 12.125 C2.461875 12.063125 2.461875 12.063125 0 12 C0 8.04 0 4.08 0 0 Z M3 3 C3 4.98 3 6.96 3 9 C4.65 8.67 6.3 8.34 8 8 C8 6.68 8 5.36 8 4 C6.35 3.67 4.7 3.34 3 3 Z " fill="#0A60BF" transform="translate(49,115)"/>
<path d="M0 0 C1.32 0 2.64 0 4 0 C4 2.97 4 5.94 4 9 C5.32 9 6.64 9 8 9 C8 6.03 8 3.06 8 0 C9.32 0 10.64 0 12 0 C12.30839695 9.2519084 12.30839695 9.2519084 10 12 C7.131446 13.05683569 5.63685855 13.2299767 2.75 12.1875 C1 11 1 11 0 9 C-0.06950541 7.45976004 -0.08452357 5.91665012 -0.0625 4.375 C-0.05347656 3.55773437 -0.04445312 2.74046875 -0.03515625 1.8984375 C-0.02355469 1.27195313 -0.01195312 0.64546875 0 0 Z " fill="#0B5DBE" transform="translate(59,133)"/>
<path d="M0 0 C1.859375 0.2578125 1.859375 0.2578125 4 1 C5.265625 2.7421875 5.265625 2.7421875 6.25 4.875 C6.58515625 5.57367188 6.9203125 6.27234375 7.265625 6.9921875 C8 9 8 9 8 12 C6.68 12 5.36 12 4 12 C4 11.34 4 10.68 4 10 C2.35 10 0.7 10 -1 10 C-1 10.66 -1 11.32 -1 12 C-2.32 12 -3.64 12 -5 12 C-4.54738642 10.56068883 -4.08767021 9.12361001 -3.625 7.6875 C-3.24214844 6.48673828 -3.24214844 6.48673828 -2.8515625 5.26171875 C-2 3 -2 3 0 0 Z M1 5 C2 7 2 7 2 7 Z " fill="#0A5DBE" transform="translate(66,115)"/>
<path d="M0 0 C2.97 0 5.94 0 9 0 C8.67 1.32 8.34 2.64 8 4 C8.33 4.99 8.66 5.98 9 7 C7.02 7 5.04 7 3 7 C3 7.66 3 8.32 3 9 C4.98 9 6.96 9 9 9 C9 9.99 9 10.98 9 12 C6.03 12 3.06 12 0 12 C0 8.04 0 4.08 0 0 Z " fill="#0A5DBE" transform="translate(25,115)"/>
<path d="M0 0 C7.37042925 -0.36248013 7.37042925 -0.36248013 10.0625 1.1875 C11.3945522 3.76280093 10.85352401 5.29717396 10 8 C9 9 9 9 5.9375 9.0625 C4.968125 9.041875 3.99875 9.02125 3 9 C3 9.99 3 10.98 3 12 C2.01 12 1.02 12 0 12 C0 8.04 0 4.08 0 0 Z M3 3 C3 3.99 3 4.98 3 6 C4.32 5.67 5.64 5.34 7 5 C6.67 4.34 6.34 3.68 6 3 C5.01 3 4.02 3 3 3 Z " fill="#0B5DBE" transform="translate(13,115)"/>
<path d="M0 0 C2.5 2 2.5 2 4 4 C2.33557103 6.02185443 1.47015897 6.92078843 -1.15625 7.36328125 C-1.9296875 7.34652344 -2.703125 7.32976562 -3.5 7.3125 C-4.2734375 7.30863281 -5.046875 7.30476562 -5.84375 7.30078125 C-8 7 -8 7 -11 5 C-10.625 3.0625 -10.625 3.0625 -10 1 C-6.81225917 -0.59387042 -3.46072041 -0.52663137 0 0 Z " fill="#0A41BA" transform="translate(32,138)"/>
<path d="M0 0 C0.99 0.66 1.98 1.32 3 2 C2.625 3.9375 2.625 3.9375 2 6 C-1.12706959 7.5635348 -4.57982443 7.39958487 -8 7 C-8.99 6.34 -9.98 5.68 -11 5 C-10.625 3.0625 -10.625 3.0625 -10 1 C-6.87293041 -0.5635348 -3.42017557 -0.39958487 0 0 Z " fill="#0A42BA" transform="translate(132,138)"/>
</svg>
